<svg width="113" height="100" viewBox="0 0 113 100" fill="none" xmlns="http://www.w3.org/2000/svg">
<g clip-path="url(#clip0_87_509)">
<path d="M54.7458 0.15753C54.3837 0.246358 53.7478 0.486194 53.3327 0.699382C52.7144 1.01028 52.4053 1.25012 51.6811 1.97851C51.1423 2.51147 50.5859 3.1688 50.2945 3.62183C49.5438 4.79436 44.2799 14.1213 24.1341 49.9457C17.1304 62.3994 8.9961 76.8784 6.05505 82.1014C3.11399 87.3334 0.605709 91.8548 0.482061 92.1479C-0.215666 93.809 -0.153843 95.6477 0.649869 97.1134C0.782348 97.3621 1.21512 97.8773 1.60372 98.2682C2.40743 99.0676 3.16699 99.5029 4.30631 99.8227L4.97754 100L56.9008 99.9825L108.833 99.9559L109.548 99.7161C112.754 98.6146 113.911 95.2835 112.233 91.917C112.048 91.535 104.293 77.8821 95.002 61.5644C85.7108 45.2556 74.6178 25.7756 70.3519 18.2785C66.0772 10.7814 62.3237 4.24362 61.9969 3.75507C60.9547 2.18281 59.6299 0.992514 58.2963 0.44178C57.1923 -0.0201261 55.894 -0.12672 54.7458 0.15753ZM68.9388 30.4479C75.9426 42.7328 86.7706 61.7421 92.9971 72.6857L104.329 92.5832L80.3762 92.6098C67.1989 92.6187 45.6312 92.6187 32.445 92.6098L8.46618 92.5832L23.1803 66.4233C51.3367 16.3509 56.0794 7.94775 56.1589 8.04546C56.1942 8.081 61.9439 18.163 68.9388 30.4479Z" fill="#81C0DD"/>
<path d="M55.532 30.0567C55.4083 30.0834 54.9932 30.1811 54.6134 30.2788C51.169 31.1493 48.3781 34.4893 48.3781 37.7137C48.3781 38.1223 48.5724 39.97 48.8197 41.8087C49.0581 43.6474 49.8177 49.4213 50.4977 54.6532C52.273 68.2884 52.2553 68.1285 52.4054 68.697C52.7764 70.1626 53.6508 71.3352 54.7989 71.9037C55.3907 72.1968 55.5585 72.2412 56.2827 72.2679C57.6251 72.33 58.4553 72.0014 59.3562 71.0598C60.2306 70.1271 60.628 69.07 60.9106 66.9382C61.0078 66.192 61.4494 62.8343 61.891 59.4677C62.3238 56.11 63.048 50.6204 63.4808 47.2539C63.9224 43.8962 64.3639 40.5385 64.4611 39.7923C64.6731 38.1756 64.6819 37.083 64.4964 36.3547C63.7722 33.4855 61.3169 31.0339 58.3759 30.2611C57.7135 30.0834 56.0266 29.9679 55.532 30.0567Z" fill="#F5B2BF"/>
<path d="M55.8146 75.6699C52.7676 76.0608 50.5684 78.9654 50.9394 82.1188C51.116 83.5934 51.6989 84.7926 52.7411 85.7608C53.748 86.7112 54.8343 87.182 56.1944 87.2709C57.846 87.3686 59.162 86.8534 60.3896 85.6098C61.5731 84.4195 62.0854 83.1848 62.0942 81.4793C62.103 80.4489 61.9794 79.8537 61.5819 78.9921C60.5221 76.6737 58.2346 75.359 55.8146 75.6699Z" fill="#F5B2BF"/>
</g>
<defs>
<clipPath id="clip0_87_509">
<rect width="113" height="100" fill="white"/>
</clipPath>
</defs>
</svg>
