<svg width="113" height="100" viewBox="0 0 113 100" fill="none" xmlns="http://www.w3.org/2000/svg">
<g clip-path="url(#clip0_1_223)">
<path d="M54.7459 0.157774C54.3838 0.246602 53.7479 0.486438 53.3328 0.699626C52.7146 1.01052 52.4054 1.25036 51.6812 1.97875C51.1425 2.51172 50.5861 3.16905 50.2946 3.62207C49.5439 4.7946 44.28 14.1216 24.1342 49.9459C17.1305 62.3996 8.99622 76.8786 6.05517 82.1017C3.11412 87.3337 0.605831 91.855 0.482183 92.1482C-0.215544 93.8092 -0.15372 95.648 0.649991 97.1136C0.78247 97.3624 1.21524 97.8776 1.60385 98.2684C2.40756 99.0679 3.16711 99.5031 4.30643 99.8229L4.97767 100.001L56.9009 99.9828L108.833 99.9561L109.548 99.7163C112.754 98.6148 113.911 95.2838 112.233 91.9172C112.048 91.5352 104.293 77.8824 95.0021 61.5646C85.7109 45.2558 74.6179 25.7758 70.352 18.2787C66.0774 10.7816 62.3238 4.24387 61.997 3.75531C60.9548 2.18305 59.63 0.992758 58.2964 0.442024C57.1924 -0.0198819 55.8941 -0.126476 54.7459 0.157774ZM68.9389 30.4482C75.9427 42.7331 86.7707 61.7423 92.9973 72.6859L104.329 92.5834L80.3764 92.6101C67.199 92.6189 45.6313 92.6189 32.4451 92.6101L8.4663 92.5834L23.1804 66.4235C51.3368 16.3511 56.0796 7.948 56.159 8.04571C56.1944 8.08124 61.944 18.1632 68.9389 30.4482Z" fill="#E77F80"/>
<path d="M55.5321 30.057C55.4084 30.0836 54.9933 30.1813 54.6136 30.2791C51.1691 31.1496 48.3782 34.4895 48.3782 37.714C48.3782 38.1226 48.5725 39.9702 48.8198 41.8089C49.0582 43.6477 49.8178 49.4215 50.4979 54.6535C52.2731 68.2886 52.2554 68.1287 52.4056 68.6972C52.7765 70.1629 53.6509 71.3354 54.799 71.9039C55.3908 72.197 55.5586 72.2415 56.2828 72.2681C57.6253 72.3303 58.4555 72.0016 59.3563 71.06C60.2307 70.1273 60.6281 69.0703 60.9108 66.9384C61.0079 66.1923 61.4495 62.8346 61.8911 59.468C62.3239 56.1103 63.0481 50.6207 63.4809 47.2541C63.9225 43.8964 64.3641 40.5387 64.4612 39.7925C64.6732 38.1759 64.682 37.0833 64.4966 36.3549C63.7723 33.4858 61.317 31.0341 58.376 30.2613C57.7136 30.0836 56.0267 29.9682 55.5321 30.057Z" fill="#E77F80"/>
<path d="M55.8145 75.6702C52.7675 76.061 50.5683 78.9657 50.9393 82.1191C51.1159 83.5936 51.6988 84.7928 52.741 85.761C53.7478 86.7115 54.8342 87.1823 56.1943 87.2711C57.8459 87.3688 59.1618 86.8536 60.3895 85.61C61.573 84.4197 62.0852 83.185 62.0941 81.4795C62.1029 80.4491 61.9792 79.854 61.5818 78.9923C60.522 76.6739 58.2345 75.3593 55.8145 75.6702Z" fill="#E77F80"/>
</g>
<defs>
<clipPath id="clip0_1_223">
<rect width="113" height="100" fill="white"/>
</clipPath>
</defs>
</svg>
