<svg width="1920" height="1813" viewBox="0 0 1920 1813" fill="none" xmlns="http://www.w3.org/2000/svg">
<g clip-path="url(#clip0_34_264)">
<rect width="1920" height="1813" fill="url(#paint0_linear_34_264)"/>
<path opacity="0.18" d="M1920 245.246C1636.26 10.2496 1503.44 1.57624 1434.58 38.2105C1257.47 132.444 1431.04 565.37 1220.2 768.045C1045 936.457 688.393 960.345 479.035 785.775C294.072 631.547 217.709 317.724 328.343 209.21C391.217 147.562 523.136 143.681 561.807 196.895C628.078 288.085 457.942 598.243 199.318 689.313C104.947 722.545 19.903 719.191 -28 713.944" stroke="#EDF9FF" stroke-opacity="0.48" stroke-width="12.93" stroke-miterlimit="10"/>
<path opacity="0.18" d="M1714 1498.79C1613.79 1415.85 1566.88 1412.79 1542.56 1425.72C1480 1458.98 1541.31 1611.78 1466.84 1683.31C1404.96 1742.75 1279.02 1751.18 1205.08 1689.57C1139.75 1635.13 1112.78 1524.37 1151.85 1486.07C1174.06 1464.32 1220.65 1462.95 1234.31 1481.73C1257.72 1513.91 1197.63 1623.38 1106.28 1655.52C1072.95 1667.25 1042.92 1666.07 1026 1664.22" stroke="white" stroke-width="12.93" stroke-miterlimit="10"/>
<path opacity="0.12" d="M1153.7 832C1122.69 966.389 1146.21 1011.51 1173.84 1027.67C1244.9 1069.25 1372.4 936.252 1490.96 969.857C1584.45 996.356 1626.27 1113.37 1647 1210" stroke="white" stroke-width="15.64" stroke-miterlimit="10"/>
<path d="M1748.58 1301.81C1741.45 1275.31 1725.3 1278.33 1728.05 1261.34C1730.42 1246.71 1710.75 1229.08 1703.1 1227.73C1675.47 1222.88 1689.08 1212.37 1670.5 1210.59C1661.18 1209.69 1651.23 1221.56 1643.39 1216.63C1630.82 1208.73 1620.61 1214.6 1609.56 1225.19C1598.33 1235.95 1609.56 1240.46 1591.82 1264.11C1580.02 1279.85 1594.08 1285.28 1593.23 1294.28C1592.26 1304.57 1583.44 1323.59 1586.39 1333.5C1590.12 1346.05 1606.78 1366.58 1608.01 1379.62C1609.25 1392.73 1602.45 1412.28 1603.37 1423.19C1604.62 1437.75 1697.36 1453.23 1716.32 1434.73C1724.27 1426.98 1740.76 1410.52 1743.8 1399.85C1746.61 1390 1730.64 1359.22 1734.74 1344.32C1741.59 1319.45 1752.32 1315.76 1748.57 1301.8L1748.58 1301.81Z" fill="#F5B2BF"/>
<path d="M1621.42 1282.86C1617.4 1286.37 1619.62 1293.43 1622.63 1296.32C1625.29 1298.86 1629.43 1299.52 1633.03 1297.55C1636.75 1295.51 1627.36 1277.65 1621.42 1282.86Z" fill="white" stroke="#19233F" stroke-width="2.74" stroke-linecap="round" stroke-linejoin="round"/>
<path d="M1775.22 1348.3C1729.54 1315.39 1659.93 1316.84 1623.43 1328.54C1612.35 1332.09 1588.13 1338.34 1581.07 1351.06C1561.62 1386.18 1551.24 1519.83 1585.81 1580.77C1602.41 1610.06 1658.45 1583.92 1673.96 1594.97C1708.66 1619.7 1675.43 1643.91 1728.58 1598.87C1749.42 1581.21 1760.96 1589.06 1762.43 1563.42C1764.79 1522.31 1802.22 1367.76 1775.22 1348.29V1348.3Z" fill="white"/>
<path d="M1627.05 1319.52C1616.98 1323.04 1611.31 1328.72 1607.5 1338.53C1600.87 1355.59 1575.92 1466.36 1568.59 1535.6C1564.18 1577.22 1592.33 1598.57 1620.77 1607.38" stroke="#19233F" stroke-width="2.74" stroke-linecap="round" stroke-linejoin="round"/>
<path d="M1728.58 1598.87C1758.37 1580.51 1776.07 1549.05 1771.29 1512.68C1765.47 1468.38 1749.5 1460.81 1746.02 1414.16C1743.06 1374.49 1712.71 1322.37 1707.51 1321.09C1703.78 1346.93 1692.48 1366.74 1656.13 1357.16" stroke="#19233F" stroke-width="2.74" stroke-linecap="round" stroke-linejoin="round"/>
<path d="M1685.65 1296.4C1682.95 1284.89 1638.72 1297.21 1644.07 1306.6C1655.62 1326.89 1649.98 1340.67 1651.92 1344.7C1656.32 1353.77 1683.23 1351.17 1687.86 1343.21C1689.89 1339.7 1689.08 1310.98 1685.65 1296.4H1685.65Z" fill="white"/>
<path d="M1687.86 1343.2C1690.31 1335.23 1689.08 1310.97 1685.65 1296.39C1682.94 1284.88 1638.72 1297.2 1644.06 1306.59C1655.61 1326.88 1649.97 1340.66 1651.91 1344.69" stroke="#19233F" stroke-width="2.74" stroke-linecap="round" stroke-linejoin="round"/>
<path d="M1667.27 1236.04C1661.18 1234.37 1653.03 1227.29 1647.91 1228.9C1647.04 1228.93 1646.16 1228.98 1645.26 1229.1C1635.2 1227.4 1624.87 1240.74 1624.5 1253.29C1624.38 1257.39 1624.42 1261.91 1624.69 1266.6C1624.63 1269.71 1624.93 1272.97 1625.58 1276.26C1627.39 1289.87 1633.13 1304.99 1641.98 1313.56C1649.75 1321.1 1660.55 1326.27 1671.02 1320.5C1681.82 1314.54 1686.1 1299.57 1687.9 1288.67C1690.87 1270.69 1689.19 1242 1667.27 1236.02V1236.04Z" fill="white" stroke="#19233F" stroke-width="2.74" stroke-linecap="round" stroke-linejoin="round"/>
<path d="M1688.66 1288.48C1694.2 1288.47 1696.69 1281.13 1696.49 1276.62C1696.31 1272.66 1694.39 1266.82 1689.53 1268.24C1682.67 1270.25 1680.45 1288.52 1688.66 1288.48Z" fill="white"/>
<path d="M1685.32 1287.06C1686.15 1287.96 1687.25 1288.49 1688.66 1288.48C1694.2 1288.47 1696.69 1281.13 1696.49 1276.62C1696.31 1272.66 1694.39 1266.82 1689.53 1268.24C1687.39 1268.86 1685.7 1271.08 1684.63 1273.83" stroke="#19233F" stroke-width="2.74" stroke-linecap="round" stroke-linejoin="round"/>
<path d="M1669.34 1208.1C1664.37 1198.71 1654.98 1208.76 1645.84 1207.28C1624.72 1203.87 1613.94 1222.35 1613.81 1232.66C1613.59 1250.02 1612.78 1250.47 1612.77 1258.7C1612.75 1270.72 1624.44 1287.8 1624.44 1287.8C1629.69 1274.7 1651.28 1257.69 1671.78 1263.54L1667.9 1246.34C1675.24 1250.73 1676.89 1264.87 1676.89 1264.87C1676.89 1264.87 1687.08 1271.07 1689.52 1273.23C1689.52 1273.23 1700.97 1253.81 1688.73 1230.91C1679.56 1213.76 1675.32 1219.43 1669.33 1208.1H1669.34Z" fill="#F5B2BF"/>
<path d="M1689.53 1275.82C1687.61 1278.23 1688.62 1280.88 1688.9 1281.95" stroke="#19233F" stroke-width="2.74" stroke-linecap="round" stroke-linejoin="round"/>
<path d="M1625.76 1244.5C1624.03 1254.68 1627.87 1264.44 1632.67 1270.2" stroke="white" stroke-width="2.74" stroke-linecap="round" stroke-linejoin="round"/>
<path d="M1634.05 1232.98C1631.04 1245.15 1636.76 1258.35 1641.56 1264.11" stroke="white" stroke-width="2.74" stroke-linecap="round" stroke-linejoin="round"/>
<path d="M1660.42 1269.12C1671.41 1265.09 1673.04 1273.41 1673.04 1273.41C1673.04 1273.41 1667.48 1270.36 1660.73 1271.51C1659.54 1271.72 1659.38 1269.5 1660.42 1269.12Z" fill="#F5B2BF"/>
<path d="M1645.45 1273.7C1633.78 1272.68 1634.37 1281.13 1634.37 1281.13C1634.37 1281.13 1638.96 1276.73 1645.77 1276.09C1646.97 1275.98 1646.55 1273.79 1645.45 1273.7Z" fill="#F5B2BF"/>
<path d="M1771.25 1483.74C1762.03 1435.64 1773.25 1369.28 1756.73 1338.77C1749.37 1325.16 1731.49 1317.51 1718.09 1313.66C1707.87 1310.72 1686.85 1342 1688.74 1362.19C1698.22 1463.77 1678.36 1479.78 1694.29 1496.64C1708.49 1511.67 1774.54 1500.94 1771.25 1483.74H1771.25Z" fill="white"/>
<path d="M1636.34 1499.74C1649.67 1482.93 1637.74 1470.43 1642.89 1369.07C1643.91 1348.94 1635.82 1316.66 1627.02 1319.58C1615.48 1323.42 1596.19 1321 1588.48 1342.66C1564.81 1409.19 1565.09 1475.62 1566.66 1493.12C1568.12 1509.37 1624.45 1514.72 1636.34 1499.73V1499.74Z" fill="white"/>
<path d="M1785.51 1479.41C1762.02 1475.4 1774.22 1446.37 1759.18 1407.28C1751.9 1388.36 1721.01 1340.8 1730.98 1330.08C1749.17 1310.52 1782.45 1355.03 1797.34 1383.09C1809.31 1405.66 1811.22 1483.8 1785.52 1479.41L1785.51 1479.41Z" fill="white"/>
<path d="M1536.22 1485.65C1559.29 1479.66 1571.27 1467.24 1582.92 1427.02C1588.57 1407.55 1611.77 1333.95 1602.95 1328.01C1588.56 1318.33 1555.31 1376.93 1542.85 1406.15C1531.94 1431.76 1519.95 1489.87 1536.21 1485.65H1536.22Z" fill="white"/>
<path d="M1559.39 1482.67C1551.06 1484.48 1549.89 1449.39 1558.25 1447.57C1562.97 1446.54 1598.08 1435.06 1604.86 1434.33C1618.48 1432.88 1633.83 1428.87 1639.81 1426.87C1646.78 1424.55 1659.98 1421.68 1666.54 1422.37C1673.24 1423.08 1674.78 1423.53 1674.01 1430.91C1673.45 1436.25 1662.32 1445.45 1657.67 1447.53C1651.55 1450.27 1635.37 1451.13 1626.92 1452.49C1612.62 1454.8 1565.7 1481.28 1559.39 1482.66V1482.67Z" fill="white"/>
<path d="M1607.8 1477.56C1620.38 1473.77 1610.79 1419.64 1587.55 1431.63C1556.85 1447.47 1547.79 1438.31 1540.94 1440.34C1530.04 1443.57 1523.42 1475.78 1531.88 1484.41C1542.14 1494.85 1546.58 1488.98 1556.6 1488.77C1599.45 1487.88 1582.15 1485.28 1607.8 1477.56V1477.56Z" fill="white"/>
<path d="M1712.75 1449.34C1718.78 1451.63 1756.57 1466.89 1763.04 1466.76C1778.21 1466.46 1776.37 1436.89 1768.2 1434.35C1763.6 1432.91 1727.12 1436.99 1706.06 1422.05C1700.65 1418.22 1682.82 1414.21 1681.83 1418.42C1681.16 1421.25 1688.24 1420.87 1688.63 1422.14C1689.23 1424.11 1678.36 1423.34 1668.4 1422.42C1664.82 1422.09 1658.36 1420.94 1658.81 1424.59C1659.31 1428.68 1659.77 1429.21 1661.69 1431.48C1666.01 1436.61 1672.13 1439.48 1682.26 1442.72C1697.99 1447.76 1705.86 1446.72 1712.76 1449.33L1712.75 1449.34Z" fill="white"/>
<path d="M1727.64 1468.38C1715.23 1464.07 1724.85 1417.54 1750.69 1421.58C1786.79 1427.22 1778.88 1431.96 1789.77 1440.49C1805.39 1452.72 1798.13 1472.37 1793.18 1477C1787.45 1482.35 1784.91 1478.06 1774.91 1477.42C1732.14 1474.71 1752.96 1477.18 1727.65 1468.38H1727.64Z" fill="white"/>
<path d="M1771.28 1483.67C1762.06 1435.58 1773.27 1369.21 1756.76 1338.7C1749.39 1325.09 1731.52 1317.45 1718.11 1313.6C1707.89 1310.66 1686.88 1341.93 1688.76 1362.12C1698.25 1463.7 1678.39 1479.71 1694.31 1496.57C1708.52 1511.6 1774.56 1500.87 1771.27 1483.67H1771.28Z" stroke="#19233F" stroke-width="2.74" stroke-linecap="round" stroke-linejoin="round"/>
<path d="M1636.38 1499.67C1649.7 1482.86 1637.78 1470.37 1642.92 1369.01C1643.94 1348.87 1635.85 1316.59 1627.05 1319.52C1615.51 1323.35 1596.23 1320.94 1588.52 1342.59C1564.84 1409.12 1565.12 1475.55 1566.69 1493.06C1568.15 1509.31 1624.48 1514.65 1636.38 1499.66V1499.67Z" stroke="#19233F" stroke-width="2.74" stroke-linecap="round" stroke-linejoin="round"/>
<path d="M1785.51 1479.41C1762.02 1475.4 1774.22 1446.37 1759.18 1407.28C1751.9 1388.36 1721.01 1340.8 1730.98 1330.08C1749.17 1310.52 1782.45 1355.03 1797.34 1383.09C1809.31 1405.66 1811.22 1483.8 1785.52 1479.41L1785.51 1479.41Z" fill="white"/>
<path d="M1730.97 1330.08C1749.17 1310.52 1782.44 1355.03 1797.33 1383.09C1809.31 1405.66 1811.21 1483.8 1785.51 1479.41C1762.02 1475.41 1774.22 1446.38 1759.18 1407.29C1757.25 1402.25 1753.63 1395.18 1749.57 1387.33" stroke="#19233F" stroke-width="2.74" stroke-linecap="round" stroke-linejoin="round"/>
<path d="M1536.26 1485.58C1559.32 1479.59 1571.3 1467.17 1582.96 1426.95C1588.6 1407.48 1611.8 1333.88 1602.99 1327.95C1588.59 1318.26 1555.35 1376.86 1542.89 1406.09C1531.97 1431.69 1519.98 1489.8 1536.25 1485.58H1536.26Z" fill="white"/>
<path d="M1604 1341.46C1604.77 1334.37 1604.44 1329.39 1602.4 1328.01C1588.01 1318.33 1554.76 1376.93 1542.3 1406.15C1531.39 1431.76 1519.4 1489.87 1535.67 1485.65C1558.73 1479.66 1570.71 1467.24 1582.37 1427.02C1582.84 1425.4 1596.95 1397.1 1594.29 1384.66" stroke="#19233F" stroke-width="2.74" stroke-linecap="round" stroke-linejoin="round"/>
<path d="M1662.6 1669.75C1652.09 1668.58 1632.25 1675.76 1646.87 1704.01C1652.64 1715.18 1654.31 1731.19 1657.21 1735.71C1661.61 1742.6 1672.71 1742.25 1674.22 1735.16C1677.33 1720.58 1676.87 1701.74 1673.63 1685.92C1673.21 1683.83 1673.75 1671 1662.61 1669.76L1662.6 1669.75Z" fill="#81C0DD"/>
<path d="M1702.78 1666.79C1713.3 1665.61 1731 1663.1 1722.28 1703.01C1719.59 1715.29 1716.96 1730.24 1714.06 1734.77C1709.65 1741.65 1698.56 1741.31 1697.05 1734.21C1693.94 1719.63 1688.31 1700.8 1690.47 1684.8C1691.71 1675.61 1691.65 1668.03 1702.79 1666.79H1702.78Z" fill="#81C0DD"/>
<path d="M1653.24 1461.95C1644.67 1425.56 1594.31 1440.06 1594.31 1474.51C1594.31 1531.96 1636.24 1606.12 1646.87 1655.24C1650.76 1673.25 1665.91 1672.08 1663.61 1652.94C1647.97 1522.91 1672.79 1545.02 1653.24 1461.95V1461.95Z" fill="white"/>
<path d="M1727.19 1470.6C1721.04 1411.59 1667.66 1434.98 1671.21 1470.55C1674.39 1502.35 1677.91 1612.04 1693.1 1678.44C1696.96 1695.34 1719.01 1697.5 1718.85 1678.95C1718.06 1582.38 1737.14 1566.06 1727.19 1470.6Z" fill="white"/>
<path d="M1657.32 1481.1C1645.66 1503.36 1613.71 1506.55 1596.95 1501.71C1612.07 1561.05 1638.27 1634.63 1645.3 1686.67C1646.33 1694.29 1672.95 1699.81 1671.9 1676.97C1667.48 1579.97 1671.04 1530.01 1657.32 1481.1Z" fill="#F5B2BF"/>
<path d="M1671.56 1489.1C1676.35 1545.34 1681.65 1631.71 1692.52 1679.25C1696.38 1696.14 1719 1697.5 1718.85 1678.94C1718.13 1591.93 1744.86 1552.72 1728.48 1478.2C1725.82 1483.23 1695.33 1504.27 1671.56 1489.1H1671.56Z" fill="#F5B2BF"/>
<path d="M1627.95 1537.92C1647.48 1534.99 1659.93 1527.48 1664 1513.02C1663.08 1506.79 1661.92 1493.08 1659 1487.42C1646.76 1517.99 1606.58 1515.87 1598.8 1508.8C1600.88 1516.99 1602.43 1526.67 1604.93 1535.67C1610.22 1538.39 1617.18 1539.53 1627.95 1537.92H1627.95Z" fill="white"/>
<path d="M1733.29 1510.52C1732.67 1504.39 1731.14 1490.82 1730.01 1485.65C1726.36 1492.16 1699.9 1520.7 1672.16 1496.08C1672.77 1503.34 1673.53 1513.64 1674.17 1521.74C1676.62 1529.91 1724.4 1544.5 1733.29 1510.52Z" fill="white"/>
<path d="M1680.86 1457.42C1679.58 1468.42 1686.61 1471.66 1689.98 1473.53" stroke="#19233F" stroke-width="2.74" stroke-linecap="round" stroke-linejoin="round"/>
<path d="M1621.06 1476.96C1627.41 1474.08 1630.87 1470.11 1632.39 1465.48" stroke="#19233F" stroke-width="2.74" stroke-linecap="round" stroke-linejoin="round"/>
<path d="M1595.42 1491.1C1602.26 1547.76 1639.51 1624.77 1645.3 1686.66C1647.02 1705.01 1672.5 1698.1 1671.57 1678.84C1667.01 1585.08 1672.82 1544.94 1653.26 1461.88C1646.14 1431.65 1610.17 1436.55 1598.21 1458.83" stroke="#19233F" stroke-width="2.74" stroke-linecap="round" stroke-linejoin="round"/>
<path d="M1725.35 1463.09C1710.89 1414.53 1667.86 1436.53 1671.24 1470.49C1674.42 1502.29 1677.94 1611.98 1693.13 1678.39C1696.99 1695.28 1719.18 1697.44 1718.88 1678.89C1717.42 1586.65 1745.04 1561.39 1728.12 1474.96" stroke="#19233F" stroke-width="2.74" stroke-linecap="round" stroke-linejoin="round"/>
<path d="M1559.43 1482.61C1551.09 1484.42 1549.92 1449.33 1558.29 1447.51C1563 1446.48 1598.11 1435 1604.89 1434.27C1618.51 1432.82 1633.87 1428.81 1639.84 1426.82C1646.82 1424.49 1660.01 1421.62 1666.57 1422.31C1673.27 1423.02 1674.82 1423.47 1674.04 1430.85C1673.48 1436.19 1662.36 1445.39 1657.7 1447.47C1651.59 1450.21 1635.4 1451.07 1626.95 1452.43C1612.66 1454.74 1565.74 1481.22 1559.43 1482.6V1482.61Z" fill="white"/>
<path d="M1666.5 1441.26C1663.29 1444.14 1659.81 1446.58 1657.68 1447.54C1651.56 1450.28 1635.38 1451.13 1626.92 1452.5" stroke="#19233F" stroke-width="2.74" stroke-linecap="round" stroke-linejoin="round"/>
<path d="M1604.86 1434.33C1618.48 1432.88 1633.83 1428.87 1639.81 1426.87C1643.83 1425.53 1648.74 1424.21 1654.45 1423.28" stroke="#19233F" stroke-width="2.74" stroke-linecap="round" stroke-linejoin="round"/>
<path d="M1712.79 1449.28C1718.82 1451.56 1756.61 1466.82 1763.07 1466.69C1778.25 1466.4 1776.41 1436.83 1768.24 1434.28C1763.63 1432.85 1727.15 1436.92 1706.1 1421.98C1700.68 1418.15 1682.86 1414.15 1681.86 1418.35C1681.19 1421.18 1688.27 1420.8 1688.66 1422.07C1689.26 1424.05 1678.39 1423.27 1668.43 1422.36C1664.86 1422.03 1658.4 1420.87 1658.84 1424.52C1659.34 1428.61 1659.81 1429.14 1661.72 1431.41C1666.04 1436.54 1672.16 1439.41 1682.29 1442.65C1698.02 1447.7 1705.89 1446.65 1712.79 1449.27L1712.79 1449.28Z" fill="white"/>
<path d="M1712.75 1449.34C1718.78 1451.63 1756.57 1466.89 1763.04 1466.76C1778.21 1466.46 1776.37 1436.89 1768.2 1434.35C1763.6 1432.91 1727.12 1436.99 1706.06 1422.05C1700.65 1418.22 1682.82 1414.21 1681.83 1418.42C1681.16 1421.25 1688.24 1420.87 1688.63 1422.14C1689.23 1424.11 1678.36 1423.34 1668.4 1422.42C1664.82 1422.09 1658.36 1420.94 1658.81 1424.59C1659.31 1428.68 1659.77 1429.21 1661.69 1431.48C1666.01 1436.61 1672.13 1439.48 1682.26 1442.72C1697.99 1447.76 1705.86 1446.72 1712.76 1449.33L1712.75 1449.34Z" stroke="#19233F" stroke-width="2.74" stroke-linecap="round" stroke-linejoin="round"/>
<path d="M1607.83 1477.5C1620.41 1473.71 1610.82 1419.59 1587.59 1431.57C1556.88 1447.41 1547.82 1438.25 1540.98 1440.28C1530.07 1443.51 1526.68 1477.97 1532.21 1484.36C1539.31 1492.53 1546.61 1488.92 1556.63 1488.71C1599.48 1487.81 1582.17 1485.21 1607.83 1477.5H1607.83Z" fill="white"/>
<path d="M1529.39 1482.25C1534.63 1493.03 1546.58 1488.98 1556.6 1488.77C1599.46 1487.88 1582.15 1485.28 1607.8 1477.56C1620.38 1473.78 1610.79 1419.65 1587.55 1431.64C1556.85 1447.48 1547.79 1438.32 1540.94 1440.35" stroke="#19233F" stroke-width="2.74" stroke-linecap="round" stroke-linejoin="round"/>
<path d="M1727.67 1468.31C1715.26 1464.01 1724.87 1417.47 1750.71 1421.51C1786.81 1427.15 1778.91 1431.89 1789.79 1440.42C1805.41 1452.65 1798.16 1472.3 1793.21 1476.93C1787.47 1482.29 1784.94 1477.99 1774.94 1477.35C1732.16 1474.64 1752.98 1477.11 1727.68 1468.31H1727.67Z" fill="white"/>
<path d="M1795.25 1476.29C1789.94 1481.41 1784.94 1477.99 1774.94 1477.35C1732.16 1474.64 1752.98 1477.11 1727.68 1468.31C1715.27 1464.01 1724.88 1417.47 1750.72 1421.51C1786.82 1427.15 1778.91 1431.89 1789.8 1440.42" stroke="#19233F" stroke-width="2.74" stroke-linecap="round" stroke-linejoin="round"/>
</g>
<defs>
<linearGradient id="paint0_linear_34_264" x1="890" y1="-80.0435" x2="1390.14" y2="2191.16" gradientUnits="userSpaceOnUse">
<stop offset="0.085" stop-color="#809B92"/>
<stop offset="1" stop-color="#E8ECF7"/>
</linearGradient>
<clipPath id="clip0_34_264">
<rect width="1920" height="1813" fill="white"/>
</clipPath>
</defs>
</svg>
