<svg width="1922" height="43" viewBox="0 0 1922 43" fill="none" xmlns="http://www.w3.org/2000/svg">
<path d="M0 25.3782C0 25.3782 49.4727 17.6444 94.879 17.1048C140.963 16.5652 180.27 17.1048 236.52 19.8026C313.101 23.3998 460.841 37.9681 539.455 30.0544C618.069 22.1408 621.458 21.7811 661.442 16.7451C706.171 10.9897 796.984 -0.521107 909.483 0.0184631C1029.44 0.558033 1246.98 29.8746 1336.44 28.4357C1345.93 28.2559 1381.17 26.9969 1407.6 24.8386C1433.35 22.6803 1471.3 18.0041 1522.81 16.3854C1544.49 15.6659 1579.06 14.4069 1619.04 14.7667C1629.21 14.9465 1661.74 15.4861 1700.37 17.6444C1739 19.8026 1774.92 23.2199 1807.45 24.299C1877.25 26.2775 1921.3 23.3998 1921.3 23.3998V42.8242H0V25.3782ZM153.84 22.5005C158.583 24.299 167.394 23.2199 182.981 23.2199C198.568 23.2199 224.321 25.3782 222.288 25.1983C220.255 25.0185 201.279 22.5005 181.625 21.7811C161.294 20.8818 149.773 20.7019 153.84 22.5005ZM278.538 27.3566C278.538 27.3566 294.803 27.7163 316.489 28.9753C338.176 30.4141 386.293 34.0113 418.823 35.2703C474.395 37.2487 525.901 35.2703 521.157 35.0904C515.735 34.9105 456.097 36.1695 401.88 33.112C379.516 31.853 338.854 29.1552 317.845 28.2559C295.48 27.1767 278.538 27.3566 278.538 27.3566ZM666.186 27.5364C654.665 28.7954 756.321 19.0832 791.562 16.5652C805.794 15.4861 833.58 13.6875 859.333 12.9681C885.763 12.2487 919.649 12.2487 918.971 12.0688C918.971 11.7091 879.664 10.63 843.068 12.0688C806.472 13.5077 807.827 14.0472 791.562 14.9465C765.809 16.3854 677.707 26.2775 666.186 27.5364ZM571.985 30.4141C570.629 30.4141 577.407 31.1336 604.515 28.4357C631.623 25.7379 649.921 22.1408 651.277 21.7811C652.632 21.6012 627.557 25.0185 606.548 27.1767C586.217 29.335 572.663 30.4141 571.985 30.4141ZM3.38855 32.0329C4.06628 31.853 16.2649 30.0544 35.9185 27.5364C55.572 25.0185 82.6803 22.5005 81.3248 22.6803C79.9694 22.6803 57.6051 23.7595 31.1746 27.1767C4.74402 30.594 2.71082 32.2127 3.38855 32.0329ZM1709.18 21.9609C1708.5 22.3206 1722.05 22.3206 1739.67 24.1192C1757.29 25.9177 1776.27 26.9969 1792.54 27.7163C1819.64 29.1552 1871.83 27.5364 1869.12 27.3566C1867.08 27.1767 1813.54 27.8962 1784.4 26.0976C1769.49 25.1983 1768.14 25.1983 1745.77 23.2199C1723.41 21.2415 1709.86 21.4213 1709.18 21.9609ZM1426.57 26.2775C1423.86 26.4573 1402.85 29.1552 1369.65 30.9537C1336.44 32.9321 1309.33 31.853 1309.33 32.3926C1309.33 32.9321 1316.11 34.0113 1351.35 32.9321C1386.59 31.853 1429.28 26.0976 1426.57 26.2775ZM1436.06 30.7739C1434.71 30.594 1413.02 33.112 1397.43 33.8314C1381.85 34.371 1384.56 34.7307 1384.56 34.9105C1384.56 35.0904 1392.01 35.2703 1402.85 34.5508C1414.38 33.6516 1437.42 30.9537 1436.06 30.7739ZM1286.97 34.9105C1286.29 34.5508 1263.25 33.4717 1249.01 31.6731C1234.78 29.8746 1236.82 30.594 1236.14 30.7739C1235.46 30.9537 1241.56 32.2127 1252.4 33.112C1263.25 34.1911 1287.64 35.2703 1286.97 34.9105ZM1478.08 22.8602C1478.76 22.3206 1476.05 21.9609 1465.2 23.2199C1454.36 24.4789 1447.58 25.558 1450.29 25.3782C1453 25.1983 1456.39 24.6588 1467.24 23.9393C1478.76 23.2199 1477.4 23.3998 1478.08 22.8602ZM1687.49 20.5221C1688.85 20.5221 1673.26 19.0832 1665.13 18.9034C1656.99 18.7235 1651.57 18.7235 1651.57 19.2631C1651.57 19.8026 1652.25 20.1623 1662.42 19.9825C1673.26 19.8026 1686.14 20.5221 1687.49 20.5221ZM889.83 4.87458C890.507 4.69472 906.095 5.41415 940.658 5.41415C974.543 5.41415 1032.83 9.73069 1057.22 11.7091C1081.62 13.6875 989.453 4.69472 945.402 4.33501C901.351 3.9753 889.152 5.05443 889.83 4.87458Z" fill="#E8ECF7"/>
</svg>
