<?xml version="1.0" encoding="UTF-8"?>
<svg id="Camada_1" data-name="Camada 1" xmlns="http://www.w3.org/2000/svg" viewBox="0 0 99.79 76.45">
  <defs>
    <style>
      .cls-1 {
        fill-rule: evenodd;
      }

      .cls-1, .cls-2 {
        fill: #e8ecf7;
        stroke-width: 0px;
      }
    </style>
  </defs>
  <g id="Layer_1" data-name="Layer 1">
    <g>
      <g>
        <path class="cls-1" d="m20.92,76.45H4.83c-.89,0-1.61-.72-1.61-1.61v-17.18C1.06,54.61-.05,51.02,0,47.25l1.61.02-1.61-.02c.06-4.76,1.97-9.2,5.37-12.49,3.41-3.3,7.91-5.07,12.67-4.98,4.66.09,9.02,1.97,12.29,5.29,3.27,3.33,5.07,7.74,5.07,12.41v1.16l4.6,7.67c.3.5.31,1.12.02,1.62-.29.5-.82.82-1.4.82h-3.46l-.54,3.27c-.3,1.78-1.22,3.41-2.6,4.58-1.38,1.17-3.13,1.81-4.94,1.81h-4.54v6.44c0,.89-.72,1.61-1.61,1.61h0Zm-14.49-3.22h12.88v-6.44c0-.89.72-1.61,1.61-1.61h6.15c2.17,0,4.01-1.56,4.37-3.7l.77-4.61c.13-.78.8-1.34,1.59-1.34h1.99l-3.37-5.61c-.15-.25-.23-.54-.23-.83v-1.61c0-7.84-6.37-14.33-14.21-14.48-3.9-.07-7.59,1.37-10.37,4.07-2.78,2.7-4.34,6.33-4.39,10.22-.04,3.23.96,6.31,2.9,8.88.21.28.32.62.32.97v16.09h0Z"/>
        <path class="cls-1" d="m33.26,61.96h-5.9c-.89,0-1.61-.72-1.61-1.61s.72-1.61,1.61-1.61h5.9c.89,0,1.61.72,1.61,1.61s-.72,1.61-1.61,1.61Z"/>
        <path class="cls-1" d="m94.96,76.45h-16.09c-.89,0-1.61-.72-1.61-1.61v-6.44h-4.54c-1.81,0-3.56-.64-4.94-1.81-1.38-1.17-2.3-2.79-2.6-4.58l-.54-3.27h-3.46c-.58,0-1.11-.31-1.4-.82s-.28-1.12.02-1.62l4.6-7.67v-1.16c0-4.67,1.8-9.08,5.07-12.41,3.27-3.33,7.63-5.21,12.29-5.29,4.77-.09,9.27,1.68,12.67,4.98,3.4,3.3,5.31,7.73,5.37,12.49h0c.05,3.77-1.06,7.36-3.22,10.41v17.18c0,.89-.72,1.61-1.61,1.61h0Zm-14.49-3.22h12.88v-16.09c0-.35.11-.69.32-.97,1.93-2.58,2.94-5.65,2.9-8.88-.05-3.9-1.61-7.53-4.39-10.22-2.79-2.7-6.47-4.14-10.37-4.07-7.83.15-14.21,6.64-14.21,14.48v1.61c0,.29-.08.58-.23.83l-3.37,5.61h1.99c.79,0,1.46.57,1.59,1.34l.77,4.61c.36,2.14,2.19,3.7,4.37,3.7h6.15c.89,0,1.61.72,1.61,1.61v6.44h0Z"/>
        <path class="cls-1" d="m72.43,61.96h-5.9c-.89,0-1.61-.72-1.61-1.61s.72-1.61,1.61-1.61h5.9c.89,0,1.61.72,1.61,1.61s-.72,1.61-1.61,1.61Z"/>
        <path class="cls-1" d="m59.55,28.97c-.89,0-1.61-.72-1.61-1.61v-15.69C57.94,5.23,63.18,0,69.61,0h22.13c.89,0,1.61.72,1.61,1.61v9.25c0,6.43-5.23,11.67-11.67,11.67h-15.69c-2.66,0-4.83,2.17-4.83,4.83,0,.89-.72,1.61-1.61,1.61h0Zm10.06-25.75c-4.66,0-8.45,3.79-8.45,8.45v9.26c1.35-1.01,3.02-1.61,4.83-1.61h15.69c4.66,0,8.45-3.79,8.45-8.45V3.22s-20.52,0-20.52,0Z"/>
        <path class="cls-1" d="m82.08,16.09h-16.09c-.89,0-1.61-.72-1.61-1.61s.72-1.61,1.61-1.61h16.09c.89,0,1.61.72,1.61,1.61s-.72,1.61-1.61,1.61Z"/>
        <path class="cls-1" d="m85.3,9.66h-16.09c-.89,0-1.61-.72-1.61-1.61s.72-1.61,1.61-1.61h16.09c.89,0,1.61.72,1.61,1.61,0,.89-.72,1.61-1.61,1.61Z"/>
        <path class="cls-1" d="m40.24,28.97c-.89,0-1.61-.72-1.61-1.61,0-2.66-2.17-4.83-4.83-4.83h-15.69c-6.43,0-11.67-5.23-11.67-11.67V1.61c0-.89.72-1.61,1.61-1.61h22.13c6.43,0,11.67,5.23,11.67,11.67v15.69c0,.89-.72,1.61-1.61,1.61h0ZM9.66,3.22v7.64c0,4.66,3.79,8.45,8.45,8.45h15.69c1.81,0,3.48.6,4.83,1.61v-9.26c0-4.66-3.79-8.45-8.45-8.45H9.66Z"/>
      </g>
      <circle class="cls-2" cx="27.36" cy="45.87" r="1.61"/>
      <circle class="cls-2" cx="72.43" cy="45.87" r="1.61"/>
      <circle class="cls-2" cx="14.49" cy="8.05" r="1.61"/>
      <circle class="cls-2" cx="20.92" cy="8.05" r="1.61"/>
      <circle class="cls-2" cx="27.36" cy="8.05" r="1.61"/>
      <circle class="cls-2" cx="20.92" cy="14.49" r="1.61"/>
      <circle class="cls-2" cx="27.36" cy="14.49" r="1.61"/>
      <circle class="cls-2" cx="33.8" cy="14.49" r="1.61"/>
    </g>
  </g>
</svg>