<?xml version="1.0" encoding="UTF-8"?>
<svg id="Camada_1" data-name="Camada 1" xmlns="http://www.w3.org/2000/svg" viewBox="0 0 80.47 99.79">
  <defs>
    <style>
      .cls-1 {
        fill: #e77f80;
        fill-rule: evenodd;
        stroke-width: 0px;
      }
    </style>
  </defs>
  <g id="Layer_1" data-name="Layer 1">
    <g>
      <path class="cls-1" d="m45.06,99.79h-28.97c-.89,0-1.61-.72-1.61-1.61v-.86c0-14.48-3.57-29.08-10.33-42.24-1.34-2.62-2.38-5.39-3.07-8.24-.72-2.93-1.08-5.97-1.08-9.02,0-5.11,1-10.06,2.97-14.72,1.91-4.5,4.63-8.55,8.1-12.02,3.47-3.47,7.52-6.2,12.02-8.1,4.66-1.97,9.62-2.97,14.72-2.97s10.19,1.13,15.14,3.37c4.65,2.1,9.08,5.18,12.82,8.92,3.74,3.74,6.82,8.17,8.92,12.82,2.23,4.95,3.37,10.04,3.37,15.14,0,.43-.17.84-.47,1.14l-3.94,3.94,6.6,10.99c.25.42.3.93.13,1.39-.17.46-.54.81-1,.97l-5.48,1.83,1.58,3.17c.4.79.08,1.76-.72,2.16l-3.39,1.69.39.78c.48.97.86,1.99,1.1,3.04.25,1.05.37,2.13.37,3.21,0,3.93-3.19,7.14-7.12,7.14-.47,0-.94-.05-1.41-.14-.01,0-.03,0-.04,0l-14.06-3.17-3.96,20.13c-.15.75-.81,1.3-1.58,1.3h0Zm-27.36-3.22h26.04l3.72-18.92-11.97-2.7c-1.84-.42-3.51-1.46-4.69-2.93-1.18-1.48-1.83-3.33-1.83-5.22,0-.89.72-1.61,1.61-1.61s1.61.72,1.61,1.61c0,2.42,1.65,4.48,4.01,5.01l13.5,3.05s0,0,0,0l15.64,3.53c.26.05.51.08.76.08,2.15,0,3.9-1.76,3.9-3.92,0-.83-.1-1.66-.29-2.47-.19-.81-.48-1.59-.85-2.34l-1.11-2.22c-.19-.38-.22-.82-.09-1.23s.43-.74.81-.93l3.39-1.69-1.69-3.39c-.21-.42-.23-.9-.05-1.34.18-.43.54-.76.98-.91l5.34-1.78-6.21-10.35c-.38-.63-.28-1.44.24-1.97l4.35-4.35c-.41-18.78-18.2-36.36-37.01-36.36S3.22,18.74,3.22,37.82c0,5.56,1.28,10.87,3.8,15.78,3.48,6.77,6.15,13.91,7.95,21.22,1.76,7.14,2.67,14.45,2.73,21.74Z"/>
      <path class="cls-1" d="m30.58,54.72c-3.04,0-5.99-.6-8.77-1.77-2.68-1.14-5.09-2.76-7.16-4.83-2.07-2.07-3.69-4.48-4.83-7.16-1.18-2.78-1.77-5.73-1.77-8.77s.6-5.99,1.77-8.77c1.14-2.68,2.76-5.09,4.83-7.16,2.07-2.07,4.48-3.69,7.16-4.83,2.78-1.18,5.73-1.77,8.77-1.77s5.99.6,8.77,1.77c2.68,1.14,5.09,2.76,7.16,4.83s3.69,4.48,4.83,7.16c1.18,2.78,1.77,5.73,1.77,8.77s-.6,5.99-1.77,8.77c-1.14,2.68-2.76,5.09-4.83,7.16-2.07,2.07-4.48,3.69-7.16,4.83-2.78,1.18-5.73,1.77-8.77,1.77h0Zm0-41.85c-10.65,0-19.31,8.66-19.31,19.31s8.66,19.31,19.31,19.31,19.31-8.66,19.31-19.31c0-10.65-8.66-19.31-19.31-19.31Z"/>
      <path class="cls-1" d="m40.24,43.45c-.89,0-1.61-.72-1.61-1.61,0-4.44-3.61-8.05-8.05-8.05s-8.05,3.61-8.05,8.05c0,.89-.72,1.61-1.61,1.61s-1.61-.72-1.61-1.61c0-6.21,5.05-11.27,11.27-11.27s11.27,5.05,11.27,11.27c0,.89-.72,1.61-1.61,1.61Z"/>
      <g>
        <path class="cls-1" d="m27.36,27.36c-.89,0-1.61-.72-1.61-1.61s-.72-1.61-1.61-1.61-1.61.72-1.61,1.61-.72,1.61-1.61,1.61-1.61-.72-1.61-1.61c0-2.66,2.17-4.83,4.83-4.83s4.83,2.17,4.83,4.83c0,.89-.72,1.61-1.61,1.61Z"/>
        <path class="cls-1" d="m40.24,27.36c-.89,0-1.61-.72-1.61-1.61s-.72-1.61-1.61-1.61-1.61.72-1.61,1.61-.72,1.61-1.61,1.61-1.61-.72-1.61-1.61c0-2.66,2.17-4.83,4.83-4.83s4.83,2.17,4.83,4.83c0,.89-.72,1.61-1.61,1.61Z"/>
      </g>
    </g>
  </g>
</svg>