<?xml version="1.0" encoding="UTF-8"?>
<svg id="Camada_1" data-name="Camada 1" xmlns="http://www.w3.org/2000/svg" viewBox="0 0 1080 1080">
  <defs>
    <style>
      .cls-1, .cls-2, .cls-3, .cls-4 {
        stroke-linecap: round;
        stroke-linejoin: round;
        stroke-width: 4.27px;
      }

      .cls-1, .cls-3 {
        stroke: #19233f;
      }

      .cls-1, .cls-5 {
        fill: #fff;
      }

      .cls-2 {
        stroke: #fff;
      }

      .cls-2, .cls-3, .cls-4 {
        fill: none;
      }

      .cls-4 {
        stroke: #71c1a6;
      }

      .cls-6 {
        fill: #81c3e0;
      }

      .cls-6, .cls-7, .cls-5, .cls-8, .cls-9 {
        stroke-width: 0px;
      }

      .cls-7 {
        fill: #19233f;
      }

      .cls-8 {
        fill: #ea8081;
      }

      .cls-9 {
        fill: #f6b6c2;
      }
    </style>
  </defs>
  <g>
    <path class="cls-1" d="m419.94,588.18c-1.92,12.48-43.27,263.08-63.47,350.76-4.72,20.48,21.35,20.68,26.41,12.48,40.86-66.08,62.87-343.41,62.87-343.41l-25.81-19.83Z"/>
    <path class="cls-1" d="m554.37,590.65c2.88,12.3,64.08,258.8,92.33,344.31,6.6,19.98-20.87,23.05-26.01,14.73-41.93-67.79-96.19-353.25-96.19-353.25l29.87-5.79Z"/>
    <path class="cls-1" d="m504.12,629.43c-.33,12.63,2.47,274.65,8.1,364.53,1.31,21-26.04,17-28.9,7.65-23.35-76.21-3.67-368.28-3.67-368.28l24.47-3.89Z"/>
    <g>
      <path class="cls-5" d="m652.93,623.34c-14.36,20.94-77.3,42.76-160.9,38.01-82.29-4.68-149.9-22.41-151.57-48.36-1.09-16.93,0-32.93,0-32.93l315.23,5.48s4.98,26.54-2.75,37.82Z"/>
      <path class="cls-3" d="m652.93,623.34c-14.36,20.94-77.3,42.76-160.9,38.01-82.29-4.68-149.9-22.41-151.57-48.36-1.09-16.93,0-32.93,0-32.93l315.23,5.48s4.98,26.54-2.75,37.82Z"/>
    </g>
    <g>
      <path class="cls-5" d="m655.68,585.52c-.1,25.12-57.65,53.05-156.59,48.11-101.08-5.05-158.63-28.31-158.63-53.58,0-32.56,70.74-54.23,154.48-54.23s160.9,21.28,160.75,59.7Z"/>
      <path class="cls-3" d="m655.68,585.52c-.1,25.12-57.65,53.05-156.59,48.11-101.08-5.05-158.63-28.31-158.63-53.58,0-32.56,70.74-54.23,154.48-54.23s160.9,21.28,160.75,59.7Z"/>
    </g>
  </g>
  <g>
    <path class="cls-9" d="m442.73,52.02c25.95-2.07,23.05-17.08,44.06-4.83,16.87,9.83,37.32-12.92,65.78,9.78,23.47,18.72,7.97,30.35,12.4,38.65,6.74,12.64,26.13-.26,18.09,32.49-1.86,7.59,15.75,7.08,18.25,24.86,2.59,18.44-11.35,18.64-5.06,34.63,11.09,28.21-15.2,22.35-26.3,27.74-8.67,4.2-5.77,32.31-31.5,20.28-6.24-2.92-10.47,2.25-16.32,5.38-46.07,24.64-58.63,4.96-73.8-.42-16.85-5.97-19.49,6.34-34.67-1.98-11.43-6.26,3.44-32.91-17.09-33.15-26.67-.31-17.15-35.72-9.66-46.41,15.29-21.83-2.66-27.47,4.58-45.78,5.25-13.28,16.77-4.51,19.39-14.89,2-7.9-.27-14.32-1.08-19.62-3.13-20.64,9.62-24.88,32.93-26.73Z"/>
    <path class="cls-5" d="m586.69,299.58c4.92-8.28,8.26-47.64-12.65-56.96-35.36-15.77-94.93-16.01-138.4-6.69-7.84,1.68-17.7,6.55-33.39,15.68-19.98,11.63-21.54,50.81-9.97,73.08,7.53,14.49-8.94,53.66,14.46,60.55,12.87,3.79,37.14,1.29,50.77-.98,30.74-5.13,92.81,2.43,116.64-9.22,17.5-8.56,5.5-63.6,12.55-75.47Z"/>
    <g>
      <path class="cls-5" d="m595.19,613.31c66.96-12.38,88.17-43.2,16.99-195.22-19.53-41.71-28.83-46.3-22.88-87.01,1.61-11-168.69,10.16-173.45,23.92-22.03,63.62-41.98,91.58-57.78,121.19-16.56,31.04-47.29,104.62,39.88,134.95,28.08,9.77,138.56,13.02,197.25,2.17Z"/>
      <path class="cls-3" d="m595.19,613.31c66.96-12.38,88.17-43.2,16.99-195.22-19.53-41.71-28.83-46.3-22.88-87.01,1.61-11-168.69,10.16-173.45,23.92-22.03,63.62-41.98,91.58-57.78,121.19-16.56,31.04-47.29,104.62,39.88,134.95,28.08,9.77,138.56,13.02,197.25,2.17Z"/>
    </g>
    <path class="cls-6" d="m604.18,314.43c24.24-45.02-12.56-69.55-31.47-77.97-4.64-2.07-10.19-.08-12.26,4.56-23.08,51.55-110.5,20.57-124.5-4.68-1.91-3.44-6.29-4.58-9.79-2.79-32.67,16.65-60.85,40.71-45.42,104.25,4.95,20.4-2.94,53.77,15.29,73.97,9.57,10.6,83.79,17.53,98.74,19.08,45.56,4.75,94.88-4.96,109.83-30.71,7.08-12.2-8.62-70.51-.43-85.72Z"/>
    <g>
      <path class="cls-8" d="m408.08,453.32c43.04-6.37,128.43-16.19,128.43-16.19l-12.01-3.06s-118.59,1.53-139.33,22.35l22.91-3.1Z"/>
      <path class="cls-8" d="m460.47,472.1c-2.91-9.46-37.92-15.33-52.39-18.78-11.15-2.66-19.53-1.33-26.82,3.79-8.5,5.97-32.09,24.16-32.52,32.7-.49,9.9,44.21,26,66.9,24.23,19.01-1.48,48.62-29.61,44.83-41.94Z"/>
      <path class="cls-8" d="m485.24,467.29s95.25,26.77,129.39,15.79c9.52-3.06-12.11-33.02-12.11-33.02l11.8-2.11s21.36,35.8,11.3,44.21c-24.03,20.08-147.1-17.14-147.1-17.14l6.72-7.73Z"/>
      <path class="cls-3" d="m518.71,475.52c30.85,6.79,74.93,14.31,95.91,7.56,5.01-1.61,1.39-10.67-3.16-18.9"/>
      <path class="cls-3" d="m393.61,456.79c-12.24,28.59,41.83,27.11,58.71,16.99"/>
      <path class="cls-7" d="m410.63,475.41c-2.68-2.08-6.63-2.91-8.84-1.85l-4.33,2.08c-2.21,1.06-3.72,2.64-1.04,4.72,2.68,2.08,7.68,3.51,9.89,2.46l5.18-1.72c2.21-1.06,1.83-3.6-.85-5.68Z"/>
    </g>
    <g>
      <path class="cls-5" d="m597.96,667.36c-.21-8.28-1.42-15.45-3.39-21.6,0,0-25.15-112.01-79.27-112.01-10.58,0-84.99,6.17-127.51,50.56-10.91,11.39,95.41,103.99,105.88,113.13-3.52,62.7,3.91,103.5,6.1,248.32.35,23.2,33.8,32.46,33.8,10.33,0-71.09,66.96-187.85,64.38-288.73Z"/>
      <g>
        <path class="cls-6" d="m579.4,980.34c-.53-7.75.7-41.98.7-41.98,0,0,6.29,9.47,19.37,6.55,11.77-2.63,22.03-7.36,22.03-7.36,0,0-1.09,33.53,10.04,57.17,6.43,13.66,18.23,16.62,16.8,22.91-2.11,9.29-23.12,7.7-30.72,3.9-18.53-9.27-20.44-8.61-25.75-25.56-1.3-4.16,6.42,8.35,4.23,11.48-1.47,2.09-7.96,2.78-9.33.89-2.06-2.84-6.45-14.56-7.37-27.99Z"/>
        <path class="cls-5" d="m661.02,648.18c-.67-6.51-3.66-46.75-21.32-73.89-10.34-15.88-31.45-22.99-44.84-27.59-18.09-6.21-75.45-18.33-105.86-9.62-17.32,4.96-23.38,32.63-26.41,49.94-2.25,12.88,63.64,73.23,92.18,98.69,1.05,72.87,12.83,106.82,30.06,262.58,2.55,23.06,36.73,29.11,34.63,7.08-6.75-70.77,51.95-206.83,41.56-307.2Z"/>
        <path class="cls-5" d="m573.68,801.04c13.71-44.25,25.39-90.44,24.29-133.7-.21-8.28-1.42-15.45-3.39-21.6,0,0-10.92-41.05-35.29-71.44"/>
      </g>
      <path class="cls-3" d="m638.15,572.11c-81.23-68.74-224.78-31.28-252.98,16.07"/>
      <path class="cls-6" d="m491.33,977.13c.21-7.76,4.68-41.73,4.68-41.73,0,0,5.36,10.03,18.66,8.36,11.96-1.5,22.63-5.24,22.63-5.24,0,0-4.26,33.27,4.57,57.86,5.1,14.21,16.57,18.27,14.55,24.4-2.98,9.05-23.75,5.47-30.95.97-17.57-10.99-19.53-10.51-23.21-27.89-.9-4.27,5.6,8.92,3.12,11.83-1.66,1.94-8.19,2.01-9.38,0-1.78-3.02-5.04-15.1-4.68-28.56Z"/>
      <path class="cls-3" d="m587.45,670c1.26,8.77-3.98,19.62-16.1,23.32"/>
    </g>
    <g>
      <path class="cls-5" d="m527.68,466.44c6.07-1.17,25.97-.92,31.99-2.51,7.97-2.1,6.76-35.05-1.22-32.94-4.5,1.19-27.18,11.03-33.54,10.17-8.5-1.14-21.73-5.05-33.56-4.02-5.54.48-17.73,6.79-15.24,11.78,0,0-6.65,2.29-10.25,6.1-5.37,5.68-9.52,16.98-6.97,19.43,1.47,1.41,3.22.75,6.11.22,3.27-.6,8.4-4.08,8.96-4.13.73-.06-1.89,2.46-1.21,3.71.66,1.2,4.08,1.07,5.77.78,4.72-.82,13.35-2.75,19-3.35,8.05-.84,23.2-3.9,30.16-5.24Z"/>
      <path class="cls-3" d="m527.68,466.44c6.07-1.17,25.97-.92,31.99-2.51,7.97-2.1,6.76-35.05-1.22-32.94-4.5,1.19-27.18,11.03-33.54,10.17-8.5-1.14-21.73-5.05-33.56-4.02-5.54.48-17.73,6.79-15.24,11.78,0,0-6.65,2.29-10.25,6.1-5.37,5.68-9.52,16.98-6.97,19.43,1.47,1.41,3.22.75,6.11.22,3.27-.6,8.4-4.08,8.96-4.13.73-.06-1.89,2.46-1.21,3.71.66,1.2,4.08,1.07,5.77.78,4.72-.82,13.35-2.75,19-3.35,8.05-.84,23.2-3.9,30.16-5.24Z"/>
    </g>
    <g>
      <path class="cls-5" d="m559.21,464.38c-.6-3.76-11.49-32.24-10.91-36,2.64-17.09-23.35-11.39-22.82,5.99.43,13.99.16,23.37,6.31,31.52,9.87,13.07,28.65,6.14,27.42-1.51Z"/>
      <path class="cls-4" d="m559.21,464.38c-.6-3.76-11.49-32.24-10.91-36,2.64-17.09-23.35-11.39-22.82,5.99.43,13.99.16,23.37,6.31,31.52,9.87,13.07,28.65,6.14,27.42-1.51Z"/>
    </g>
    <path class="cls-6" d="m590.38,248.98c-19.67-9.83,15.28,120.94,0,134.85-7.45,6.78-41.69,23.7-50.37,29.81-8.18,5.76,1.3,47.84,12.15,57.88,8.05,7.45,20.69,6.26,43.53-5.55,42.05-21.75,47.68-50.66,51.81-70.77,4.27-20.81-.53-117.95-57.12-146.22Z"/>
    <g>
      <path class="cls-5" d="m492.36,444.35c-6.2,0-14.25,3.6-14.25,3.6l14.25-3.6Z"/>
      <path class="cls-3" d="m492.36,444.35c-6.2,0-14.25,3.6-14.25,3.6"/>
    </g>
    <path class="cls-5" d="m468.89,179.17c-2.72-15.89,53.91-15.59,51.65-1.02-3.53,22.78,1.38,57.89-1.13,63.44-5.67,12.53-42.23,10.7-48.84,0-2.91-4.71,1.21-45.51-1.68-62.42Z"/>
    <path class="cls-5" d="m464.09,91.06c7.42-4.36,15.63-16.59,22.94-16.29,1.16-.28,2.35-.51,3.56-.67,12.63-5.83,31,8.06,35.96,24.45,1.62,5.36,3.18,11.33,4.5,17.6,1.18,4.07,1.95,8.49,2.27,13.05,2.47,18.56,1.77,38.15-6.81,52.59-7.55,12.71-22.02,20.32-37.86,16.45-16.35-3.99-26.7-16.78-32.95-30.49-10.32-22.62-18.32-60.99,8.39-76.67Z"/>
    <path class="cls-5" d="m541.95,136.31c6.54,3.2,6.14,13.28,3.2,18.16-2.59,4.29-7.81,6.63-13.26,5.32-5.62-1.35.37-28.22,10.06-23.48Z"/>
    <path class="cls-5" d="m455.79,167.42c-7.3,1.95-14.38-6.51-15.71-12.51-1.17-5.28,1.08-10.8,6.17-13.52,5.26-2.81,20.36,23.14,9.54,26.03Z"/>
    <path class="cls-9" d="m456.63,68.64c3.19-14.13,19.13-4.24,30.65-9.45,26.59-12.02,47.36,8.46,51.21,22,6.47,22.78,7.71,23.08,10.66,33.92,4.31,15.82-11.52,33.44-16.7,29.83-9.8-6.82-.36-23.76-16.93-23.23-23.79.76-18.86-35.15-48.89-4.71-7.61,7.72-6.06,31.89-16,28.45-9.63-3.33-18.61-25.65-16.16-37.35,5.45-25.95,18.32-22.41,22.16-39.46Z"/>
    <path class="cls-2" d="m506.71,58.87c22.78,15.73,28.7,10.13,32.12,23.78,3.5,13.97-.97,19.62,1.98,30.45"/>
    <path class="cls-2" d="m441.15,136.13c-8.99-4.3-10.15-31.91-2.63-45.08"/>
    <path class="cls-3" d="m448.32,150.49c3.38,2.48,4.13,7.02,4.13,8.53"/>
    <path class="cls-7" d="m483.42,134.08c-18.89-1.26-17.57,12.43-17.57,12.43,0,0,7.21-7.29,18.19-8.56,1.94-.23,1.15-3.75-.62-3.87Z"/>
    <path class="cls-7" d="m505.2,132.2c17.26-2.39,18.72,9.9,18.72,9.9,0,0-8.31-5.21-18.49-5.64-1.8-.08-1.85-4.03-.24-4.25Z"/>
    <path class="cls-3" d="m491.9,199.24s-20.9-.39-32.29-20.32"/>
    <path class="cls-5" d="m544.89,240.79c-3.45,6.35-9.92,38.54-13.75,44.68-5.06,8.11-35.2-5.93-30.13-14.06,2.86-4.58,20.83-26.18,22.51-33.64,2.25-9.95-.3-21.55,8.81-35.01,4.16-6.15,16.32-19.13,18.9-16.11,2.27,2.65-6.72,11.21-5.89,14.31,3.76,1.29,15.7-15.26,18.76-22.01,1.66-3.66,6.27-12.63,6.98-8.59,1.04,5.88,1.8,12.61,1.79,15.94-.02,7.49-5.48,20.02-10.98,27.87-9.3,13.27-13.06,19.35-17.01,26.62Z"/>
    <g>
      <path class="cls-5" d="m532.86,280.93c-3.99-1.45-27.99-10.35-32.25-10.25-19.38.44-7.1-32.56,11.86-28.8,15.27,3.03,25.63,4.33,33.15,13.82,12.07,15.22-4.65,28.19-12.77,25.22Z"/>
      <path class="cls-4" d="m532.86,280.93c-3.99-1.45-27.99-10.35-32.25-10.25-19.38.44-7.1-32.56,11.86-28.8,15.27,3.03,25.63,4.33,33.15,13.82,12.07,15.22-4.65,28.19-12.77,25.22Z"/>
    </g>
    <path class="cls-6" d="m401.86,248.96c21.99.02,23.15,93.62,30.83,88.76,17.62-11.15,15.26-19.09,23.2-38.4,4.46-10.85,20.12-36.75,32.84-42.92,9.97-4.84,41.67,8.85,47.14,15.89,10.64,13.7,1.12,48.44-14.96,72.73-29.6,44.71-76.88,67.88-93.29,69.38-17.43,1.6-43.09-29.38-51.38-57.54-20.83-70.72,5.48-107.93,25.63-107.91Z"/>
    <path class="cls-3" d="m584.51,269.93c2.33,35.64,16.69,104.05,5.87,113.9-7.45,6.78-41.69,23.7-50.37,29.81"/>
    <path class="cls-3" d="m535.85,272.3c10.64,13.7,1.12,48.44-14.96,72.73-29.6,44.71-76.88,67.88-93.29,69.38-17.43,1.6-43.09-29.38-51.38-57.54"/>
    <path class="cls-3" d="m401.86,248.96c21.99.02,23.15,93.62,30.83,88.76,17.62-11.15,15.26-19.09,23.2-38.4"/>
  </g>
</svg>