<svg width="210" height="103" viewBox="0 0 210 103" fill="none" xmlns="http://www.w3.org/2000/svg">
<path d="M76.6359 14.0271C63.7244 14.0271 50.0039 23.0129 50.0039 39.6654C50.0039 47.4084 52.8879 54.0309 58.3455 58.8209C63.239 63.115 69.7352 65.4805 76.6359 65.4805C83.5366 65.4805 90.0328 63.115 94.9263 58.8209C100.384 54.0331 103.268 47.4084 103.268 39.6654C103.268 23.0129 89.5474 14.0271 76.6359 14.0271ZM76.6359 59.2053C66.7396 59.2053 56.7231 52.4932 56.7231 39.6654C56.7231 30.0417 63.5626 20.3002 76.6359 20.3002C89.7092 20.3002 96.5487 30.0417 96.5487 39.6654C96.5487 52.4932 86.5322 59.2053 76.6359 59.2053Z" fill="#81C1DE"/>
<path d="M150.224 21.4074C149.441 20.5993 148.59 19.8457 147.687 19.1599C143.271 15.8006 137.594 14.0248 131.277 14.0248C118.064 14.0248 104.733 21.9535 104.733 39.6631C104.733 57.3726 118.064 65.5656 131.277 65.5656C140.951 65.5656 146.848 61.6602 150.224 58.0738V63.4906H156.943V0H150.224V21.4053V21.4074ZM150.224 35.3667V43.789C150.224 54.4392 140.664 59.2074 131.19 59.2074C119.254 59.2074 111.542 51.5364 111.542 39.6674C111.542 27.7984 119.254 20.3022 131.19 20.3022C140.664 20.3022 150.224 24.9611 150.224 35.3689V35.3667Z" fill="#81C1DE"/>
<path d="M201.583 44.2257C201.583 53.4649 194.794 59.205 183.868 59.205C172.181 59.205 164.922 52.2221 164.922 40.98C164.922 40.067 165.223 39.8245 165.368 39.7066C167.539 37.9592 175.71 39.7284 181.124 40.8992C182.193 41.1307 183.24 41.3579 184.255 41.5654C190.609 42.8475 199.261 43.5006 204.38 39.3156C206.986 37.186 208.307 34.1456 208.307 30.2752C208.307 19.0483 196.386 14.0225 184.572 14.0225C167.926 14.0225 158.38 23.6243 158.38 40.364C158.38 55.3848 168.623 65.4759 183.87 65.4759C196.034 65.4759 208.307 58.9036 208.307 44.2235V41.7445H201.585V44.2235L201.583 44.2257ZM165.757 33.3396C167.771 24.4477 173.738 20.2999 184.48 20.2999C192.411 20.2999 201.671 22.9122 201.671 30.2774C201.671 32.182 201.135 33.5559 200.035 34.4776C196.594 37.3586 188.556 35.9235 185.53 35.384C184.231 35.1525 182.904 34.8817 181.496 34.5955L181.399 34.5759C177.405 33.7612 173.272 32.9202 169.666 32.9202C168.191 32.9202 166.903 33.0579 165.755 33.3418L165.757 33.3396Z" fill="#81C1DE"/>
<path d="M0 0.00880268C0.387017 0.00880268 0.71937 0.00880268 1.05172 0.00880268C10.1018 0.00880268 19.1497 -0.0174078 28.1998 0.0219079C32.0568 0.0393816 35.8789 0.43254 39.4298 2.29567C43.5733 4.46896 45.8057 8.18212 46.4792 13.066C47.5703 20.9772 45.6374 27.9427 40.8248 34.0541C43.5842 38.3308 45.4275 43.0945 46.6541 48.1466C47.8808 53.1943 48.4274 58.2158 48.5411 63.4951H41.7694C41.6229 57.7047 41.0631 52.1459 39.1762 46.7378C38.4415 44.6278 37.4554 42.6227 36.5545 40.5849C36.3227 40.0607 35.9773 39.5932 35.658 39.0537C32.3717 41.6267 28.8076 43.3151 24.9353 44.1539C20.3195 45.1521 15.6993 45.4797 11.1601 43.6493C9.25342 42.8805 8.17983 42.0527 6.76077 40.2398V63.4972H0V0.00880268ZM35.916 28.0082C39.2308 24.2208 40.5078 19.7846 39.9152 14.7435C39.5566 11.69 38.0588 9.33538 35.3781 8.26512C33.6486 7.57491 31.7747 7.0092 29.9512 6.96333C22.4076 6.77112 14.8619 6.79733 7.31396 6.75146C7.12373 6.75146 6.9335 6.83009 6.76514 6.86504V24.7777C8.04427 22.9168 9.67323 21.971 11.4968 21.3835C16.2722 19.8436 21.0301 20.1691 25.7618 21.6106C29.5948 22.7792 32.9227 24.9459 35.916 28.006V28.0082ZM32.5838 33.3879C32.223 33.0668 31.9693 32.8724 31.7485 32.6431C27.1218 27.8094 21.5439 26.2193 15.3211 26.9467C13.2045 27.1935 11.1776 27.8509 9.57047 29.5066C7.7141 31.4177 7.7294 34.183 9.70385 35.9325C10.5806 36.7079 11.6411 37.3413 12.7103 37.7301C16.9238 39.2678 21.1591 38.8004 25.3551 37.5729C27.9702 36.8084 30.3447 35.5022 32.5816 33.3879H32.5838Z" fill="#81C1DE"/>
<path d="M0 102.147V97.7018L18.5856 79.6297H1.00581V75.1848H25.1102V79.6297L6.50713 97.7018H25.7858V102.147H0Z" fill="#81C1DE"/>
<path d="M88.6377 102.278C86.6283 102.278 85.0365 101.666 83.8667 100.443C82.6969 99.2199 82.1109 97.549 82.1109 95.4303C82.1109 93.7288 82.4476 91.9705 83.1233 90.1554C83.7989 88.3403 84.6539 86.6082 85.6859 84.9635C82.6423 81.3421 79.6336 79.5314 76.6577 79.5314V102.147H71.9282V75.187H76.6577C80.7334 75.187 84.6429 77.238 88.3885 81.3421C90.0131 79.5096 91.7973 78.0265 93.7345 76.8907C95.674 75.7549 97.7184 75.187 99.8722 75.187H104.584V102.147H99.8722V79.5969C96.9291 79.5969 94.0122 81.3683 91.1238 84.9133C92.2105 86.5384 93.1267 88.301 93.8679 90.2056C94.6092 92.1103 94.9809 93.9341 94.9809 95.6793C94.9809 97.7302 94.4124 99.3444 93.2754 100.517C92.1384 101.692 90.5925 102.278 88.6377 102.278ZM86.4621 95.4303C86.4621 96.3083 86.6217 96.9439 86.941 97.3393C87.2602 97.7346 87.8243 97.9312 88.6377 97.9312C89.3965 97.9312 89.9147 97.7586 90.1945 97.4135C90.4744 97.0684 90.6144 96.4896 90.6144 95.6771C90.6144 93.7353 89.895 91.4747 88.4562 88.8951C87.1268 91.3523 86.4621 93.5322 86.4621 95.4303Z" fill="#81C1DE"/>
<path d="M110.56 102.147V75.187H126.41C129.091 75.187 131.284 75.8772 132.992 77.2598C134.699 78.6424 135.554 80.4204 135.554 82.5915C135.554 84.0505 135.08 85.3043 134.129 86.3527C133.177 87.4011 131.946 88.0455 130.429 88.2857C132.143 88.5391 133.532 89.2162 134.597 90.3192C135.661 91.4222 136.195 92.7371 136.195 94.2617C136.195 95.7863 135.766 97.1471 134.909 98.344C134.052 99.541 132.856 100.474 131.317 101.142C129.78 101.81 128.033 102.147 126.078 102.147H110.558H110.56ZM115.287 86.0993H125.767C127.239 86.0993 128.448 85.7739 129.393 85.1208C130.337 84.4677 130.809 83.6246 130.809 82.5937C130.809 81.7375 130.37 81.0363 129.491 80.4859C128.612 79.9377 127.486 79.6625 126.113 79.6625H115.287V86.0971V86.0993ZM115.287 97.6691H126.08C127.65 97.6691 128.938 97.3502 129.944 96.7146C130.949 96.079 131.45 95.2599 131.45 94.2617C131.45 93.1871 130.978 92.3068 130.033 91.621C129.089 90.9352 127.879 90.5922 126.408 90.5922H115.287V97.6691Z" fill="#81C1DE"/>
<path d="M166.251 102.985C163.647 102.985 161.323 102.378 159.274 101.166C157.225 99.9538 155.627 98.2588 154.479 96.0812C153.331 93.9035 152.758 91.431 152.758 88.6658C152.758 86.593 153.092 84.6665 153.764 82.8885C154.433 81.1106 155.36 79.5969 156.541 78.3454C157.721 77.0938 159.149 76.1131 160.824 75.3989C162.499 74.6868 164.309 74.3286 166.253 74.3286C168.814 74.3286 171.101 74.796 173.117 75.7287C175.133 76.6614 176.703 77.961 177.829 79.6297C178.955 81.2984 179.517 83.1856 179.517 85.2912H174.623C174.623 83.404 173.841 81.8532 172.275 80.641C170.709 79.4287 168.702 78.8215 166.253 78.8215C163.804 78.8215 161.596 79.7411 159.96 81.578C158.323 83.4171 157.505 85.7782 157.505 88.6636C157.505 91.5489 158.323 93.9122 159.96 95.7492C161.596 97.5883 163.695 98.5056 166.253 98.5056C168.811 98.5056 170.709 97.8984 172.275 96.6862C173.841 95.474 174.623 93.9232 174.623 92.036H179.517C179.517 94.1438 178.953 96.0309 177.829 97.6975C176.703 99.3662 175.133 100.664 173.117 101.59C171.101 102.518 168.814 102.981 166.253 102.981L166.251 102.985Z" fill="#81C1DE"/>
<path d="M36.3752 75.187H31.7573V102.147H36.3752V75.187Z" fill="#81C1DE"/>
<path d="M47.0761 79.6297H65.959V75.187H42.3466V102.147H65.959V97.7018H47.0761V91.0618H63.7331V86.4488H47.0761V83.8758V79.6297Z" fill="#81C1DE"/>
<path d="M146.787 75.187H142.169V102.147H146.787V75.187Z" fill="#81C1DE"/>
<path d="M209 75.187H202.624L190.218 86.6738V75.187H185.488V102.147H190.218V92.6825L195.094 88.1219L195.599 87.6523L203.486 102.147H208.112L199.062 84.4262L209 75.187Z" fill="#81C1DE"/>
</svg>
