<svg width="276" height="136" viewBox="0 0 276 136" fill="none" xmlns="http://www.w3.org/2000/svg">
<path d="M95.6359 31.0271C82.7244 31.0271 69.0039 40.0129 69.0039 56.6654C69.0039 64.4084 71.8879 71.0309 77.3455 75.8209C82.239 80.115 88.7352 82.4805 95.6359 82.4805C102.537 82.4805 109.033 80.115 113.926 75.8209C119.384 71.0331 122.268 64.4084 122.268 56.6654C122.268 40.0129 108.547 31.0271 95.6359 31.0271ZM95.6359 76.2053C85.7396 76.2053 75.7231 69.4932 75.7231 56.6654C75.7231 47.0417 82.5626 37.3002 95.6359 37.3002C108.709 37.3002 115.549 47.0417 115.549 56.6654C115.549 69.4932 105.532 76.2053 95.6359 76.2053Z" fill="#81C1DE"/>
<path d="M169.224 38.4074C168.441 37.5993 167.59 36.8457 166.687 36.1599C162.271 32.8006 156.594 31.0248 150.277 31.0248C137.064 31.0248 123.733 38.9535 123.733 56.6631C123.733 74.3726 137.064 82.5656 150.277 82.5656C159.951 82.5656 165.848 78.6602 169.224 75.0738V80.4906H175.943V17H169.224V38.4053V38.4074ZM169.224 52.3667V60.789C169.224 71.4392 159.664 76.2074 150.19 76.2074C138.254 76.2074 130.542 68.5364 130.542 56.6674C130.542 44.7984 138.254 37.3022 150.19 37.3022C159.664 37.3022 169.224 41.9611 169.224 52.3689V52.3667Z" fill="#81C1DE"/>
<path d="M220.583 61.2257C220.583 70.4649 213.794 76.205 202.868 76.205C191.181 76.205 183.922 69.2221 183.922 57.98C183.922 57.067 184.223 56.8245 184.368 56.7066C186.539 54.9592 194.71 56.7284 200.124 57.8992C201.193 58.1307 202.24 58.3579 203.255 58.5654C209.609 59.8475 218.261 60.5006 223.38 56.3156C225.986 54.186 227.307 51.1456 227.307 47.2752C227.307 36.0483 215.386 31.0225 203.572 31.0225C186.926 31.0225 177.38 40.6243 177.38 57.364C177.38 72.3848 187.623 82.4759 202.87 82.4759C215.034 82.4759 227.307 75.9036 227.307 61.2235V58.7445H220.585V61.2235L220.583 61.2257ZM184.757 50.3396C186.771 41.4477 192.738 37.2999 203.48 37.2999C211.411 37.2999 220.671 39.9122 220.671 47.2774C220.671 49.182 220.135 50.5559 219.035 51.4776C215.594 54.3586 207.556 52.9235 204.53 52.384C203.231 52.1525 201.904 51.8817 200.496 51.5955L200.399 51.5759C196.405 50.7612 192.272 49.9202 188.666 49.9202C187.191 49.9202 185.903 50.0579 184.755 50.3418L184.757 50.3396Z" fill="#81C1DE"/>
<path d="M19 17.0088C19.387 17.0088 19.7194 17.0088 20.0517 17.0088C29.1018 17.0088 38.1497 16.9826 47.1998 17.0219C51.0568 17.0394 54.8789 17.4325 58.4298 19.2957C62.5733 21.469 64.8057 25.1821 65.4792 30.066C66.5703 37.9772 64.6374 44.9427 59.8248 51.0541C62.5842 55.3308 64.4275 60.0945 65.6541 65.1466C66.8808 70.1943 67.4274 75.2158 67.5411 80.4951H60.7694C60.6229 74.7047 60.0631 69.1459 58.1762 63.7378C57.4415 61.6278 56.4554 59.6227 55.5545 57.5849C55.3227 57.0607 54.9773 56.5932 54.658 56.0537C51.3717 58.6267 47.8076 60.3151 43.9353 61.1539C39.3195 62.1521 34.6993 62.4797 30.1601 60.6493C28.2534 59.8805 27.1798 59.0527 25.7608 57.2398V80.4972H19V17.0088ZM54.916 45.0082C58.2308 41.2208 59.5078 36.7846 58.9152 31.7435C58.5566 28.69 57.0588 26.3354 54.3782 25.2651C52.6486 24.5749 50.7747 24.0092 48.9512 23.9633C41.4076 23.7711 33.8619 23.7973 26.314 23.7515C26.1237 23.7515 25.9335 23.8301 25.7651 23.865V41.7777C27.0443 39.9168 28.6732 38.971 30.4968 38.3835C35.2722 36.8436 40.0301 37.1691 44.7618 38.6106C48.5948 39.7792 51.9227 41.9459 54.916 45.006V45.0082ZM51.5838 50.3879C51.223 50.0668 50.9693 49.8724 50.7485 49.6431C46.1218 44.8094 40.5439 43.2193 34.3211 43.9467C32.2045 44.1935 30.1776 44.8509 28.5705 46.5066C26.7141 48.4177 26.7294 51.183 28.7038 52.9325C29.5806 53.7079 30.6411 54.3413 31.7103 54.7301C35.9238 56.2678 40.1591 55.8004 44.3551 54.5728C46.9702 53.8084 49.3447 52.5022 51.5816 50.3879H51.5838Z" fill="#81C1DE"/>
<path d="M19 119.147V114.702L37.5856 96.6297H20.0058V92.1848H44.1102V96.6297L25.5071 114.702H44.7858V119.147H19Z" fill="#81C1DE"/>
<path d="M107.638 119.278C105.628 119.278 104.037 118.666 102.867 117.443C101.697 116.22 101.111 114.549 101.111 112.43C101.111 110.729 101.448 108.97 102.123 107.155C102.799 105.34 103.654 103.608 104.686 101.964C101.642 98.3421 98.6336 96.5314 95.6577 96.5314V119.147H90.9282V92.187H95.6577C99.7334 92.187 103.643 94.238 107.388 98.3421C109.013 96.5096 110.797 95.0265 112.735 93.8907C114.674 92.7549 116.718 92.187 118.872 92.187H123.584V119.147H118.872V96.5969C115.929 96.5969 113.012 98.3683 110.124 101.913C111.211 103.538 112.127 105.301 112.868 107.206C113.609 109.11 113.981 110.934 113.981 112.679C113.981 114.73 113.412 116.344 112.275 117.517C111.138 118.692 109.592 119.278 107.638 119.278ZM105.462 112.43C105.462 113.308 105.622 113.944 105.941 114.339C106.26 114.735 106.824 114.931 107.638 114.931C108.396 114.931 108.915 114.759 109.195 114.414C109.474 114.068 109.614 113.49 109.614 112.677C109.614 110.735 108.895 108.475 107.456 105.895C106.127 108.352 105.462 110.532 105.462 112.43Z" fill="#81C1DE"/>
<path d="M129.56 119.147V92.187H145.41C148.091 92.187 150.284 92.8772 151.992 94.2598C153.699 95.6424 154.554 97.4204 154.554 99.5915C154.554 101.051 154.08 102.304 153.129 103.353C152.177 104.401 150.946 105.045 149.429 105.286C151.143 105.539 152.532 106.216 153.597 107.319C154.661 108.422 155.195 109.737 155.195 111.262C155.195 112.786 154.766 114.147 153.909 115.344C153.052 116.541 151.856 117.474 150.317 118.142C148.78 118.81 147.033 119.147 145.078 119.147H129.558H129.56ZM134.287 103.099H144.767C146.239 103.099 147.448 102.774 148.393 102.121C149.337 101.468 149.809 100.625 149.809 99.5937C149.809 98.7375 149.37 98.0363 148.491 97.4859C147.612 96.9377 146.486 96.6625 145.113 96.6625H134.287V103.097V103.099ZM134.287 114.669H145.08C146.65 114.669 147.938 114.35 148.944 113.715C149.949 113.079 150.45 112.26 150.45 111.262C150.45 110.187 149.978 109.307 149.033 108.621C148.089 107.935 146.879 107.592 145.408 107.592H134.287V114.669Z" fill="#81C1DE"/>
<path d="M185.251 119.985C182.647 119.985 180.323 119.378 178.274 118.166C176.225 116.954 174.627 115.259 173.479 113.081C172.331 110.904 171.758 108.431 171.758 105.666C171.758 103.593 172.092 101.666 172.764 99.8885C173.433 98.1106 174.36 96.5969 175.541 95.3454C176.721 94.0938 178.149 93.1131 179.824 92.3989C181.499 91.6868 183.309 91.3286 185.253 91.3286C187.814 91.3286 190.101 91.796 192.117 92.7287C194.133 93.6614 195.703 94.961 196.829 96.6297C197.955 98.2984 198.517 100.186 198.517 102.291H193.623C193.623 100.404 192.841 98.8532 191.275 97.641C189.709 96.4287 187.702 95.8215 185.253 95.8215C182.804 95.8215 180.596 96.7411 178.96 98.578C177.323 100.417 176.505 102.778 176.505 105.664C176.505 108.549 177.323 110.912 178.96 112.749C180.596 114.588 182.695 115.506 185.253 115.506C187.811 115.506 189.709 114.898 191.275 113.686C192.841 112.474 193.623 110.923 193.623 109.036H198.517C198.517 111.144 197.953 113.031 196.829 114.697C195.703 116.366 194.133 117.664 192.117 118.59C190.101 119.518 187.814 119.981 185.253 119.981L185.251 119.985Z" fill="#81C1DE"/>
<path d="M55.3752 92.187H50.7573V119.147H55.3752V92.187Z" fill="#81C1DE"/>
<path d="M66.0762 96.6297H84.9591V92.187H61.3467V119.147H84.9591V114.702H66.0762V108.062H82.7332V103.449H66.0762V100.876V96.6297Z" fill="#81C1DE"/>
<path d="M165.787 92.187H161.169V119.147H165.787V92.187Z" fill="#81C1DE"/>
<path d="M228 92.187H221.624L209.218 103.674V92.187H204.488V119.147H209.218V109.683L214.094 105.122L214.599 104.652L222.486 119.147H227.112L218.062 101.426L228 92.187Z" fill="#81C1DE"/>
</svg>
