<svg width="44" height="58" viewBox="0 0 44 58" fill="none" xmlns="http://www.w3.org/2000/svg">
<path d="M0 0.00748954C0.350086 0.00748954 0.651216 0.00748954 0.952345 0.00748954C9.15489 0.00748954 17.3584 -0.0157101 25.5609 0.0195533C29.0581 0.0344011 32.5211 0.393531 35.7411 2.09267C39.4969 4.07392 41.5208 7.4592 42.1323 11.9107C43.1216 19.123 41.3684 25.4723 37.0057 31.0448C39.5071 34.9433 41.1771 39.2863 42.2902 43.8928C43.4014 48.4937 43.8975 53.1893 44 58H37.8629C37.7299 52.7207 37.2227 47.537 35.513 42.6066C34.846 40.6838 33.9528 38.8548 33.1362 36.9969C32.9256 36.5181 32.6144 36.094 32.3225 35.6003C29.3444 37.9453 26.1124 39.4849 22.6032 40.2486C18.4188 41.1589 14.2307 41.4568 10.1155 39.7874C8.38729 39.0868 7.4137 38.3314 6.12697 36.6796V57.9684H0V0.00748954ZM32.5571 25.5326C35.5619 22.0796 36.7202 18.0364 36.1817 13.4401C35.8557 10.657 34.4978 8.51061 32.0684 7.5353C30.5009 6.90612 28.8013 6.39109 27.1497 6.34933C20.3124 6.17487 13.4705 6.199 6.63039 6.15631C6.45766 6.15538 6.28492 6.22684 6.13343 6.26025V22.59C7.29361 20.8936 8.7697 20.0315 10.4222 19.4952C14.7498 18.0911 19.0635 18.3881 23.3523 19.703C26.8264 20.7674 29.8432 22.744 32.5562 25.5335L32.5571 25.5326ZM29.5366 30.4389C29.2096 30.1466 28.9796 29.9702 28.78 29.7596C24.5855 25.3526 19.5291 23.9031 13.8898 24.5666C11.9704 24.7921 10.134 25.3906 8.67641 26.9005C6.99433 28.6423 7.00726 31.1636 8.79741 32.7579C9.5918 33.466 10.5534 34.0413 11.5233 34.3967C15.3428 35.798 19.1827 35.372 22.9856 34.2538C25.3549 33.5569 27.509 32.3672 29.5366 30.4389Z" fill="#809B92"/>
</svg>
