<?xml version="1.0" encoding="UTF-8"?>
<svg id="Camada_1" data-name="Camada 1" xmlns="http://www.w3.org/2000/svg" viewBox="0 0 1080 456">
  <defs>
    <style>
      .cls-1 {
        stroke-width: 0px;
      }

      .cls-1, .cls-2 {
        fill: #e88080;
      }

      .cls-2 {
        font-family: Baloo2-Medium, 'Baloo2 Medium';
        font-size: 43.81px;
        font-weight: 500;
      }

      .cls-3 {
        letter-spacing: -.02em;
      }
    </style>
  </defs>
  <g>
    <g>
      <path class="cls-1" d="M414.37,71.24c-59.05,0-121.8,41.14-121.8,117.38,0,35.45,13.19,65.77,38.15,87.7,22.38,19.66,52.09,30.49,83.65,30.49s61.27-10.83,83.65-30.49c24.96-21.92,38.15-52.25,38.15-87.7,0-76.24-62.75-117.38-121.8-117.38ZM414.37,278.09c-45.26,0-91.07-30.73-91.07-89.46,0-44.06,31.28-88.66,91.07-88.66s91.07,44.6,91.07,88.66c0,58.73-45.81,89.46-91.07,89.46Z"/>
      <path class="cls-1" d="M750.92,105.04c-3.58-3.7-7.47-7.15-11.6-10.29-20.2-15.38-46.16-23.51-75.05-23.51-60.43,0-121.4,36.3-121.4,117.38s60.97,118.59,121.4,118.59c44.24,0,71.21-17.88,86.65-34.3v24.8h30.73V7.03h-30.73v98ZM750.92,168.94v38.56c0,48.76-43.72,70.59-87.05,70.59-54.59,0-89.86-35.12-89.86-89.46s35.27-88.66,89.86-88.66c43.33,0,87.05,21.33,87.05,68.98Z"/>
      <path class="cls-1" d="M985.8,209.51c0,42.3-31.05,68.58-81.02,68.58-53.45,0-86.65-31.97-86.65-83.44,0-4.18,1.38-5.29,2.04-5.83,9.93-8,47.3.1,72.06,5.46,4.89,1.06,9.68,2.1,14.32,3.05,29.06,5.87,68.63,8.86,92.04-10.3,11.92-9.75,17.96-23.67,17.96-41.39,0-51.4-54.52-74.41-108.55-74.41-76.13,0-119.79,43.96-119.79,120.6,0,68.77,46.85,114.97,116.58,114.97,55.63,0,111.76-30.09,111.76-97.3v-11.35h-30.74v11.35ZM821.96,159.67c9.21-40.71,36.5-59.7,85.63-59.7,36.27,0,78.62,11.96,78.62,45.68,0,8.72-2.45,15.01-7.48,19.23-15.74,13.19-52.5,6.62-66.34,4.15-5.94-1.06-12.01-2.3-18.45-3.61l-.44-.09c-18.27-3.73-37.17-7.58-53.66-7.58-6.75,0-12.64.63-17.89,1.93Z"/>
    </g>
    <path class="cls-1" d="M63.87,7.06c1.77,0,3.29,0,4.81,0,41.39,0,82.77-.12,124.16.06,17.64.08,35.12,1.88,51.36,10.41,18.95,9.95,29.16,26.95,32.24,49.31,4.99,36.22-3.85,68.11-25.86,96.09,12.62,19.58,21.05,41.39,26.66,64.52,5.61,23.11,8.11,46.1,8.63,70.27h-30.97c-.67-26.51-3.23-51.96-11.86-76.72-3.36-9.66-7.87-18.84-11.99-28.17-1.06-2.4-2.64-4.54-4.1-7.01-15.03,11.78-31.33,19.51-49.04,23.35-21.11,4.57-42.24,6.07-63-2.31-8.72-3.52-13.63-7.31-20.12-15.61v106.48h-30.91V7.06ZM228.14,135.25c15.16-17.34,21-37.65,18.29-60.73-1.64-13.98-8.49-24.76-20.75-29.66-7.91-3.16-16.48-5.75-24.82-5.96-34.5-.88-69.01-.76-103.53-.97-.87,0-1.74.36-2.51.52v82.01c5.85-8.52,13.3-12.85,21.64-15.54,21.84-7.05,43.6-5.56,65.24,1.04,17.53,5.35,32.75,15.27,46.44,29.28ZM212.9,159.89c-1.65-1.47-2.81-2.36-3.82-3.41-21.16-22.13-46.67-29.41-75.13-26.08-9.68,1.13-18.95,4.14-26.3,11.72-8.49,8.75-8.42,21.41.61,29.42,4.01,3.55,8.86,6.45,13.75,8.23,19.27,7.04,38.64,4.9,57.83-.72,11.96-3.5,22.82-9.48,33.05-19.16Z"/>
  </g>
  <text class="cls-2" transform="translate(60.28 403.63)"><tspan class="cls-3" x="0" y="0">P</tspan><tspan x="22.35" y="0">sicanalista</tspan></text>
  <g>
    <path class="cls-1" d="M292.56,444.21v-15.48l64.66-62.94h-61.17v-15.48h83.87v15.48l-64.72,62.94h67.07v15.48h-89.72Z"/>
    <path class="cls-1" d="M600.96,444.67c-6.99,0-12.53-2.13-16.6-6.39-4.07-4.26-6.11-10.08-6.11-17.46,0-5.92,1.18-12.05,3.53-18.37,2.35-6.33,5.32-12.35,8.91-18.09-10.59-12.61-21.06-18.92-31.41-18.92v78.77h-16.45v-93.9h16.45c14.18,0,27.78,7.15,40.82,21.44,5.66-6.38,11.86-11.55,18.6-15.51,6.74-3.96,13.86-5.93,21.35-5.93h16.4v93.9h-16.4v-78.54c-10.24,0-20.39,6.17-30.44,18.52,3.78,5.66,6.96,11.8,9.54,18.43,2.58,6.63,3.87,12.99,3.87,19.06,0,7.15-1.98,12.77-5.93,16.85-3.96,4.09-9.34,6.13-16.14,6.13ZM593.39,420.82c0,3.06.55,5.27,1.66,6.65,1.11,1.38,3.08,2.06,5.9,2.06,2.64,0,4.44-.6,5.42-1.81.97-1.2,1.46-3.22,1.46-6.05,0-6.76-2.5-14.64-7.51-23.62-4.62,8.56-6.94,16.15-6.94,22.76Z"/>
    <path class="cls-1" d="M677.22,444.21v-93.9h55.15c9.32,0,16.96,2.41,22.9,7.22,5.94,4.82,8.91,11.01,8.91,18.57,0,5.08-1.65,9.45-4.96,13.1-3.31,3.65-7.6,5.9-12.87,6.74,5.96.88,10.8,3.24,14.5,7.08,3.71,3.84,5.56,8.42,5.56,13.73s-1.49,10.05-4.47,14.22c-2.98,4.17-7.15,7.42-12.5,9.75-5.35,2.33-11.43,3.5-18.23,3.5h-54ZM693.68,388.32h36.46c5.12,0,9.32-1.14,12.61-3.41,3.29-2.27,4.93-5.21,4.93-8.8,0-2.98-1.53-5.43-4.59-7.34-3.06-1.91-6.98-2.87-11.75-2.87h-37.66v22.41ZM693.68,428.62h37.55c5.46,0,9.95-1.11,13.44-3.32,3.5-2.22,5.24-5.06,5.24-8.54,0-3.74-1.64-6.81-4.93-9.2-3.29-2.39-7.49-3.58-12.61-3.58h-38.7v24.65Z"/>
    <path class="cls-1" d="M870.99,447.14c-9.06,0-17.15-2.11-24.28-6.33-7.13-4.22-12.69-10.13-16.68-17.71-3.99-7.59-5.99-16.2-5.99-25.83,0-7.22,1.16-13.93,3.5-20.12,2.33-6.19,5.55-11.47,9.66-15.82,4.11-4.36,9.08-7.78,14.9-10.26,5.83-2.48,12.12-3.73,18.89-3.73,8.91,0,16.86,1.62,23.88,4.87,7.01,3.25,12.48,7.78,16.4,13.59,3.92,5.81,5.88,12.38,5.88,19.72h-17.03c0-6.57-2.72-11.97-8.17-16.19-5.45-4.22-12.43-6.33-20.95-6.33s-16.2,3.2-21.9,9.6c-5.7,6.4-8.54,14.63-8.54,24.68s2.85,18.28,8.54,24.68c5.69,6.4,12.99,9.6,21.9,9.6s15.51-2.11,20.95-6.33c5.45-4.22,8.17-9.62,8.17-16.2h17.03c0,7.34-1.96,13.91-5.88,19.72-3.92,5.81-9.38,10.33-16.4,13.56-7.01,3.23-14.97,4.84-23.88,4.84Z"/>
    <rect class="cls-1" x="403.06" y="350.31" width="16.06" height="93.9"/>
    <polygon class="cls-1" points="456.35 365.79 522.05 365.79 522.05 350.31 439.9 350.31 439.9 444.21 522.05 444.21 522.05 428.73 456.35 428.73 456.35 405.61 514.31 405.61 514.31 389.54 456.35 389.54 456.35 380.58 456.35 365.79"/>
    <rect class="cls-1" x="787.2" y="350.31" width="16.06" height="93.9"/>
    <polygon class="cls-1" points="1019.72 350.31 997.54 350.31 954.37 390.33 954.37 350.31 937.92 350.31 937.92 444.21 954.37 444.21 954.37 411.25 971.34 395.37 973.1 393.73 1000.54 444.21 1016.63 444.21 985.15 382.49 1019.72 350.31"/>
  </g>
</svg>