<svg width="1920" height="1813" viewBox="0 0 1920 1813" fill="none" xmlns="http://www.w3.org/2000/svg">
<g clip-path="url(#clip0_34_264)">
<rect width="1920" height="1813" fill="url(#paint0_linear_34_264)"/>
<path opacity="0.18" d="M2002 1156.25C1718.26 921.25 1585.44 912.576 1516.58 949.211C1339.47 1043.44 1513.04 1476.37 1302.2 1679.04C1127 1847.46 770.393 1871.34 561.035 1696.77C376.072 1542.55 299.709 1228.72 410.343 1120.21C473.217 1058.56 605.136 1054.68 643.807 1107.9C710.078 1199.09 539.942 1509.24 281.318 1600.31C186.947 1633.55 101.903 1630.19 54 1624.94" stroke="#EDF9FF" stroke-opacity="0.8" stroke-width="12.93" stroke-miterlimit="10"/>
<path opacity="0.12" d="M1155.7 0C1124.69 134.389 1148.21 179.509 1175.84 195.671C1246.9 237.25 1374.4 104.252 1492.96 137.857C1586.45 164.356 1628.27 281.368 1649 378" stroke="#8FA7A1" stroke-opacity="0.8" stroke-width="15.64" stroke-miterlimit="10"/>
<path d="M1750.58 469.812C1743.45 443.315 1727.3 446.33 1730.05 429.335C1732.42 414.714 1712.75 397.077 1705.1 395.734C1677.47 390.877 1691.08 380.369 1672.5 378.587C1663.18 377.692 1653.23 389.559 1645.39 384.635C1632.82 376.729 1622.61 382.599 1611.56 393.191C1600.33 403.953 1611.56 408.463 1593.82 432.114C1582.02 447.85 1596.08 453.282 1595.23 462.278C1594.26 472.566 1585.44 491.588 1588.39 501.496C1592.12 514.048 1608.78 534.582 1610.01 547.624C1611.25 560.733 1604.45 580.279 1605.37 591.192C1606.62 605.754 1699.36 621.229 1718.32 602.73C1726.27 594.976 1742.76 578.522 1745.8 567.845C1748.61 558.005 1732.64 527.216 1736.74 512.325C1743.59 487.449 1754.32 483.758 1750.57 469.804L1750.58 469.812Z" fill="#F5B2BF"/>
<path d="M1623.42 450.857C1619.4 454.371 1621.62 461.433 1624.63 464.322C1627.29 466.864 1631.43 467.523 1635.03 465.546C1638.75 463.511 1629.36 445.646 1623.42 450.857Z" fill="white" stroke="#19233F" stroke-width="2.74" stroke-linecap="round" stroke-linejoin="round"/>
<path d="M1777.22 516.303C1731.54 483.386 1661.93 484.839 1625.43 496.537C1614.35 500.085 1590.13 506.336 1583.07 519.056C1563.62 554.178 1553.24 687.831 1587.81 748.775C1604.41 778.059 1660.45 751.917 1675.96 762.965C1710.66 787.697 1677.43 811.914 1730.58 766.868C1751.42 749.205 1762.96 757.061 1764.43 731.416C1766.79 690.306 1804.22 535.764 1777.22 516.294V516.303Z" fill="white"/>
<path d="M1629.05 487.517C1618.98 491.039 1613.31 496.724 1609.5 506.53C1602.87 523.593 1577.92 634.355 1570.59 703.602C1566.18 745.219 1594.33 766.572 1622.77 775.382" stroke="#19233F" stroke-width="2.74" stroke-linecap="round" stroke-linejoin="round"/>
<path d="M1730.58 766.868C1760.37 748.513 1778.07 717.049 1773.29 680.677C1767.47 636.382 1751.5 628.814 1748.02 582.162C1745.06 542.488 1714.71 490.371 1709.51 489.087C1705.78 514.934 1694.48 534.742 1658.13 525.155" stroke="#19233F" stroke-width="2.74" stroke-linecap="round" stroke-linejoin="round"/>
<path d="M1687.65 464.398C1684.95 452.893 1640.72 465.209 1646.07 474.601C1657.62 494.89 1651.98 508.667 1653.92 512.696C1658.32 521.768 1685.23 519.175 1689.86 511.21C1691.89 507.704 1691.08 478.977 1687.65 464.398H1687.65Z" fill="white"/>
<path d="M1689.86 511.201C1692.31 503.228 1691.08 478.968 1687.65 464.389C1684.94 452.885 1640.72 465.2 1646.06 474.593C1657.61 494.882 1651.97 508.659 1653.91 512.688" stroke="#19233F" stroke-width="2.74" stroke-linecap="round" stroke-linejoin="round"/>
<path d="M1669.27 404.037C1663.18 402.373 1655.03 395.286 1649.91 396.9C1649.04 396.925 1648.16 396.984 1647.26 397.102C1637.2 395.396 1626.87 408.742 1626.5 421.286C1626.38 425.391 1626.42 429.91 1626.69 434.598C1626.63 437.706 1626.93 440.975 1627.58 444.261C1629.39 457.868 1635.13 472.988 1643.98 481.562C1651.75 489.105 1662.55 494.266 1673.02 488.496C1683.82 482.541 1688.1 467.565 1689.9 456.669C1692.87 438.686 1691.19 410.001 1669.27 404.02V404.037Z" fill="white" stroke="#19233F" stroke-width="2.74" stroke-linecap="round" stroke-linejoin="round"/>
<path d="M1690.66 456.483C1696.2 456.466 1698.69 449.126 1698.49 444.624C1698.31 440.662 1696.39 434.817 1691.53 436.236C1684.67 438.247 1682.45 456.517 1690.66 456.483Z" fill="white"/>
<path d="M1687.32 455.056C1688.15 455.96 1689.25 456.492 1690.66 456.483C1696.2 456.466 1698.69 449.126 1698.49 444.624C1698.31 440.662 1696.39 434.817 1691.53 436.236C1689.39 436.861 1687.7 439.083 1686.63 441.828" stroke="#19233F" stroke-width="2.74" stroke-linecap="round" stroke-linejoin="round"/>
<path d="M1671.34 376.104C1666.37 366.711 1656.98 376.763 1647.84 375.284C1626.72 371.872 1615.94 390.345 1615.81 400.659C1615.59 418.017 1614.78 418.473 1614.77 426.7C1614.75 438.72 1626.44 455.799 1626.44 455.799C1631.69 442.698 1653.28 425.686 1673.78 431.54L1669.9 414.342C1677.24 418.735 1678.89 432.866 1678.89 432.866C1678.89 432.866 1689.08 439.074 1691.52 441.228C1691.52 441.228 1702.97 421.809 1690.73 398.91C1681.56 381.763 1677.32 387.431 1671.33 376.104H1671.34Z" fill="#F5B2BF"/>
<path d="M1691.53 443.821C1689.61 446.229 1690.62 448.881 1690.9 449.954" stroke="#19233F" stroke-width="2.74" stroke-linecap="round" stroke-linejoin="round"/>
<path d="M1627.76 412.501C1626.03 422.679 1629.87 432.435 1634.67 438.204" stroke="white" stroke-width="2.74" stroke-linecap="round" stroke-linejoin="round"/>
<path d="M1636.05 400.979C1633.04 413.151 1638.76 426.345 1643.56 432.106" stroke="white" stroke-width="2.74" stroke-linecap="round" stroke-linejoin="round"/>
<path d="M1662.42 437.123C1673.41 433.094 1675.04 441.406 1675.04 441.406C1675.04 441.406 1669.48 438.357 1662.73 439.514C1661.54 439.717 1661.38 437.503 1662.42 437.123Z" fill="#F5B2BF"/>
<path d="M1647.45 441.702C1635.78 440.679 1636.37 449.126 1636.37 449.126C1636.37 449.126 1640.96 444.734 1647.77 444.092C1648.97 443.982 1648.55 441.794 1647.45 441.702Z" fill="#F5B2BF"/>
<path d="M1773.25 651.738C1764.03 603.643 1775.25 537.276 1758.73 506.767C1751.37 493.159 1733.49 485.515 1720.09 481.663C1709.87 478.723 1688.85 510.002 1690.74 530.19C1700.22 631.77 1680.36 647.777 1696.29 664.637C1710.49 679.672 1776.54 668.936 1773.25 651.738H1773.25Z" fill="white"/>
<path d="M1638.34 667.736C1651.67 650.927 1639.74 638.435 1644.89 537.074C1645.91 516.936 1637.82 484.661 1629.02 487.584C1617.48 491.419 1598.19 489.003 1590.48 510.66C1566.81 577.187 1567.09 643.621 1568.66 661.123C1570.12 677.374 1626.45 682.721 1638.34 667.728V667.736Z" fill="white"/>
<path d="M1787.51 647.405C1764.02 643.402 1776.22 614.37 1761.18 575.278C1753.9 556.358 1723.01 508.803 1732.98 498.084C1751.17 478.521 1784.45 523.027 1799.34 551.087C1811.31 573.657 1813.22 651.798 1787.52 647.414L1787.51 647.405Z" fill="white"/>
<path d="M1538.22 653.647C1561.29 647.659 1573.27 635.242 1584.92 595.018C1590.57 575.549 1613.77 501.952 1604.95 496.014C1590.56 486.326 1557.31 544.929 1544.85 574.155C1533.94 599.757 1521.95 657.871 1538.21 653.647H1538.22Z" fill="white"/>
<path d="M1561.39 650.666C1553.06 652.482 1551.89 617.394 1560.25 615.569C1564.97 614.539 1600.08 603.06 1606.86 602.333C1620.48 600.88 1635.83 596.868 1641.81 594.875C1648.78 592.552 1661.98 589.68 1668.54 590.373C1675.24 591.082 1676.78 591.53 1676.01 598.912C1675.45 604.251 1664.32 613.449 1659.67 615.527C1653.55 618.272 1637.37 619.125 1628.92 620.494C1614.62 622.8 1567.7 649.28 1561.39 650.657V650.666Z" fill="white"/>
<path d="M1609.8 645.555C1622.38 641.771 1612.79 587.644 1589.55 599.63C1558.85 615.468 1549.79 606.312 1542.94 608.339C1532.04 611.566 1525.42 643.782 1533.88 652.406C1544.14 662.846 1548.58 656.975 1558.6 656.773C1601.45 655.877 1584.15 653.276 1609.8 645.564V645.555Z" fill="white"/>
<path d="M1714.75 617.344C1720.78 619.633 1758.57 634.888 1765.04 634.761C1780.21 634.465 1778.37 604.893 1770.2 602.351C1765.6 600.915 1729.12 604.986 1708.06 590.052C1702.65 586.217 1684.82 582.213 1683.83 586.42C1683.16 589.25 1690.24 588.87 1690.63 590.137C1691.23 592.113 1680.36 591.336 1670.4 590.424C1666.82 590.094 1660.36 588.937 1660.81 592.586C1661.31 596.683 1661.77 597.206 1663.69 599.479C1668.01 604.606 1674.13 607.478 1684.26 610.721C1699.99 615.764 1707.86 614.717 1714.76 617.335L1714.75 617.344Z" fill="white"/>
<path d="M1729.64 636.382C1717.23 632.074 1726.85 585.541 1752.69 589.579C1788.79 595.221 1780.88 599.96 1791.77 608.491C1807.39 620.722 1800.13 640.369 1795.18 644.998C1789.45 650.353 1786.91 646.062 1776.91 645.42C1734.14 642.709 1754.96 645.175 1729.65 636.382H1729.64Z" fill="white"/>
<path d="M1773.28 651.671C1764.06 603.575 1775.27 537.209 1758.76 506.699C1751.39 493.092 1733.52 485.447 1720.11 481.595C1709.89 478.656 1688.88 509.934 1690.76 530.122C1700.25 631.703 1680.39 647.709 1696.31 664.569C1710.52 679.604 1776.56 668.869 1773.27 651.671H1773.28Z" stroke="#19233F" stroke-width="2.74" stroke-linecap="round" stroke-linejoin="round"/>
<path d="M1638.38 667.669C1651.7 650.86 1639.78 638.367 1644.92 537.006C1645.94 516.869 1637.85 484.594 1629.05 487.517C1617.51 491.351 1598.23 488.936 1590.52 510.593C1566.84 577.12 1567.12 643.554 1568.69 661.055C1570.15 677.307 1626.48 682.654 1638.38 667.661V667.669Z" stroke="#19233F" stroke-width="2.74" stroke-linecap="round" stroke-linejoin="round"/>
<path d="M1787.51 647.405C1764.02 643.402 1776.22 614.37 1761.18 575.278C1753.9 556.358 1723.01 508.803 1732.98 498.084C1751.17 478.521 1784.45 523.027 1799.34 551.087C1811.31 573.657 1813.22 651.798 1787.52 647.414L1787.51 647.405Z" fill="white"/>
<path d="M1732.97 498.084C1751.17 478.521 1784.44 523.027 1799.33 551.087C1811.31 573.657 1813.21 651.798 1787.51 647.414C1764.02 643.41 1776.22 614.379 1761.18 575.287C1759.25 570.253 1755.63 563.183 1751.57 555.327" stroke="#19233F" stroke-width="2.74" stroke-linecap="round" stroke-linejoin="round"/>
<path d="M1538.26 653.58C1561.32 647.591 1573.3 635.175 1584.96 594.951C1590.6 575.481 1613.8 501.885 1604.99 495.947C1590.59 486.258 1557.35 544.862 1544.89 574.088C1533.97 599.69 1521.98 657.803 1538.25 653.58H1538.26Z" fill="white"/>
<path d="M1606 509.461C1606.77 502.374 1606.44 497.391 1604.4 496.014C1590.01 486.326 1556.76 544.929 1544.3 574.155C1533.39 599.757 1521.4 657.871 1537.67 653.647C1560.73 647.659 1572.71 635.242 1584.37 595.018C1584.84 593.397 1598.95 565.1 1596.29 552.658" stroke="#19233F" stroke-width="2.74" stroke-linecap="round" stroke-linejoin="round"/>
<path d="M1664.6 837.753C1654.09 836.579 1634.25 843.759 1648.87 872.014C1654.64 883.18 1656.31 899.187 1659.21 903.714C1663.61 910.598 1674.71 910.252 1676.22 903.157C1679.33 888.578 1678.87 869.741 1675.63 853.921C1675.21 851.834 1675.75 839.004 1664.61 837.762L1664.6 837.753Z" fill="#81C0DD"/>
<path d="M1704.78 834.789C1715.3 833.614 1733 831.097 1724.28 871.008C1721.59 883.29 1718.96 898.241 1716.06 902.768C1711.65 909.652 1700.56 909.306 1699.05 902.211C1695.94 887.631 1690.31 868.795 1692.47 852.797C1693.71 843.607 1693.65 836.03 1704.79 834.789H1704.78Z" fill="#81C0DD"/>
<path d="M1655.24 629.946C1646.67 593.558 1596.31 608.061 1596.31 642.515C1596.31 699.962 1638.24 774.124 1648.87 823.242C1652.76 841.251 1667.91 840.076 1665.61 820.936C1649.97 690.915 1674.79 713.02 1655.24 629.955V629.946Z" fill="white"/>
<path d="M1729.19 638.604C1723.04 579.595 1669.66 602.975 1673.21 638.553C1676.39 670.347 1679.91 780.036 1695.1 846.445C1698.96 863.338 1721.01 865.501 1720.85 846.952C1720.06 750.38 1739.14 734.061 1729.19 638.604Z" fill="white"/>
<path d="M1659.32 649.104C1647.66 671.361 1615.71 674.554 1598.95 669.714C1614.07 729.052 1640.27 802.632 1647.3 854.672C1648.33 862.291 1674.95 867.807 1673.9 844.967C1669.48 747.973 1673.04 698.01 1659.32 649.104Z" fill="#F5B2BF"/>
<path d="M1673.56 657.103C1678.35 713.341 1683.65 799.709 1694.52 847.248C1698.38 864.141 1721 865.501 1720.85 846.943C1720.13 759.933 1746.86 720.724 1730.48 646.198C1727.82 651.232 1697.33 672.273 1673.56 657.103H1673.56Z" fill="#F5B2BF"/>
<path d="M1629.95 705.916C1649.48 702.994 1661.93 695.476 1666 681.024C1665.08 674.79 1663.92 661.081 1661 655.421C1648.76 685.99 1608.58 683.87 1600.8 676.8C1602.88 684.993 1604.43 694.673 1606.93 703.669C1612.22 706.389 1619.18 707.529 1629.95 705.916H1629.95Z" fill="white"/>
<path d="M1735.29 678.523C1734.67 672.391 1733.14 658.817 1732.01 653.647C1728.36 660.16 1701.9 688.701 1674.16 664.079C1674.77 671.343 1675.53 681.64 1676.17 689.74C1678.62 697.908 1726.4 712.496 1735.29 678.523Z" fill="white"/>
<path d="M1682.86 625.418C1681.58 636.416 1688.61 639.66 1691.98 641.526" stroke="#19233F" stroke-width="2.74" stroke-linecap="round" stroke-linejoin="round"/>
<path d="M1623.06 644.956C1629.41 642.084 1632.87 638.106 1634.39 633.477" stroke="#19233F" stroke-width="2.74" stroke-linecap="round" stroke-linejoin="round"/>
<path d="M1597.42 659.104C1604.26 715.756 1641.51 792.774 1647.3 854.663C1649.02 873.01 1674.5 866.1 1673.57 846.842C1669.01 753.083 1674.82 712.944 1655.26 629.878C1648.14 599.647 1612.17 604.546 1600.21 626.829" stroke="#19233F" stroke-width="2.74" stroke-linecap="round" stroke-linejoin="round"/>
<path d="M1727.35 631.086C1712.89 582.534 1669.86 604.529 1673.24 638.494C1676.42 670.287 1679.94 779.977 1695.13 846.385C1698.99 863.279 1721.18 865.441 1720.88 846.892C1719.42 754.654 1747.04 729.389 1730.12 642.962" stroke="#19233F" stroke-width="2.74" stroke-linecap="round" stroke-linejoin="round"/>
<path d="M1561.43 650.607C1553.09 652.423 1551.92 617.335 1560.29 615.51C1565 614.48 1600.11 603.001 1606.89 602.274C1620.51 600.821 1635.87 596.809 1641.84 594.816C1648.82 592.493 1662.01 589.621 1668.57 590.314C1675.27 591.023 1676.82 591.471 1676.04 598.853C1675.48 604.192 1664.36 613.39 1659.7 615.468C1653.59 618.213 1637.4 619.066 1628.95 620.435C1614.66 622.741 1567.74 649.221 1561.43 650.598V650.607Z" fill="white"/>
<path d="M1668.5 609.26C1665.29 612.14 1661.81 614.581 1659.68 615.536C1653.56 618.281 1637.38 619.134 1628.92 620.502" stroke="#19233F" stroke-width="2.74" stroke-linecap="round" stroke-linejoin="round"/>
<path d="M1606.86 602.334C1620.48 600.881 1635.83 596.868 1641.81 594.875C1645.83 593.532 1650.74 592.206 1656.45 591.285" stroke="#19233F" stroke-width="2.74" stroke-linecap="round" stroke-linejoin="round"/>
<path d="M1714.79 617.276C1720.82 619.565 1758.61 634.82 1765.07 634.693C1780.25 634.397 1778.41 604.825 1770.24 602.283C1765.63 600.847 1729.15 604.918 1708.1 589.984C1702.68 586.149 1684.86 582.146 1683.86 586.352C1683.19 589.182 1690.27 588.802 1690.66 590.069C1691.26 592.045 1680.39 591.268 1670.43 590.356C1666.86 590.026 1660.4 588.869 1660.84 592.518C1661.34 596.615 1661.81 597.139 1663.72 599.411C1668.04 604.538 1674.16 607.41 1684.29 610.653C1700.02 615.696 1707.89 614.649 1714.79 617.267L1714.79 617.276Z" fill="white"/>
<path d="M1714.75 617.343C1720.78 619.632 1758.57 634.887 1765.04 634.76C1780.21 634.465 1778.37 604.893 1770.2 602.35C1765.6 600.914 1729.12 604.985 1708.06 590.052C1702.65 586.217 1684.82 582.213 1683.83 586.419C1683.16 589.249 1690.24 588.869 1690.63 590.136C1691.23 592.113 1680.36 591.336 1670.4 590.423C1666.82 590.094 1660.36 588.937 1660.81 592.586C1661.31 596.682 1661.77 597.206 1663.69 599.478C1668.01 604.605 1674.13 607.477 1684.26 610.721C1699.99 615.764 1707.86 614.716 1714.76 617.335L1714.75 617.343Z" stroke="#19233F" stroke-width="2.74" stroke-linecap="round" stroke-linejoin="round"/>
<path d="M1609.83 645.496C1622.41 641.712 1612.82 587.585 1589.59 599.571C1558.88 615.409 1549.82 606.253 1542.98 608.28C1532.07 611.506 1528.68 645.969 1534.21 652.355C1541.31 660.531 1548.61 656.916 1558.63 656.705C1601.48 655.81 1584.17 653.208 1609.83 645.496H1609.83Z" fill="white"/>
<path d="M1531.39 650.252C1536.63 661.03 1548.58 656.975 1558.6 656.772C1601.46 655.877 1584.15 653.276 1609.8 645.564C1622.38 641.779 1612.79 587.653 1589.55 599.639C1558.85 615.476 1549.79 606.32 1542.94 608.347" stroke="#19233F" stroke-width="2.74" stroke-linecap="round" stroke-linejoin="round"/>
<path d="M1729.67 636.315C1717.26 632.007 1726.87 585.474 1752.71 589.511C1788.81 595.154 1780.91 599.892 1791.79 608.424C1807.41 620.654 1800.16 640.302 1795.21 644.93C1789.47 650.286 1786.94 645.995 1776.94 645.353C1734.16 642.641 1754.98 645.108 1729.68 636.315H1729.67Z" fill="white"/>
<path d="M1797.25 644.288C1791.94 649.407 1786.94 645.986 1776.94 645.353C1734.16 642.641 1754.98 645.108 1729.68 636.315C1717.27 632.007 1726.88 585.474 1752.72 589.511C1788.82 595.154 1780.91 599.892 1791.8 608.424" stroke="#19233F" stroke-width="2.74" stroke-linecap="round" stroke-linejoin="round"/>
</g>
<defs>
<linearGradient id="paint0_linear_34_264" x1="772" y1="-128" x2="1394.8" y2="2168.95" gradientUnits="userSpaceOnUse">
<stop offset="0.415" stop-color="#E8ECF7"/>
<stop offset="1" stop-color="#809B92"/>
</linearGradient>
<clipPath id="clip0_34_264">
<rect width="1920" height="1813" fill="white"/>
</clipPath>
</defs>
</svg>
