<svg width="1920" height="1813" viewBox="0 0 1920 1813" fill="none" xmlns="http://www.w3.org/2000/svg">
<g clip-path="url(#clip0_34_264)">
<rect width="1920" height="1813" fill="url(#paint0_linear_34_264)"/>
<path opacity="0.18" d="M2002 1156.25C1718.26 921.25 1585.44 912.576 1516.58 949.211C1339.47 1043.44 1513.04 1476.37 1302.2 1679.04C1127 1847.46 770.393 1871.34 561.035 1696.77C376.072 1542.55 299.709 1228.72 410.343 1120.21C473.217 1058.56 605.136 1054.68 643.807 1107.9C710.078 1199.09 539.942 1509.24 281.318 1600.31C186.947 1633.55 101.903 1630.19 54 1624.94" stroke="#EDF9FF" stroke-opacity="0.8" stroke-width="12.93" stroke-miterlimit="10"/>
<path opacity="0.12" d="M871.701 -130C840.694 4.38888 864.211 49.5091 891.836 65.6709C962.901 107.25 1090.4 -25.7477 1208.96 7.85684C1302.45 34.3562 1344.27 151.368 1365 248" stroke="#8FA7A1" stroke-opacity="0.8" stroke-width="15.64" stroke-miterlimit="10"/>
<path d="M1478.87 339.768C1471.73 313.271 1455.58 316.286 1458.34 299.291C1460.71 284.67 1441.04 267.033 1433.39 265.69C1405.76 260.833 1419.36 250.325 1400.79 248.543C1391.46 247.648 1381.51 259.515 1373.68 254.591C1361.11 246.685 1350.89 252.555 1339.85 263.148C1328.62 273.909 1339.85 278.419 1322.11 302.07C1310.31 317.807 1324.37 323.238 1323.52 332.234C1322.55 342.522 1313.73 361.544 1316.68 371.452C1320.41 384.004 1337.07 404.538 1338.3 417.58C1339.53 430.689 1332.73 450.235 1333.66 461.148C1334.91 475.71 1427.65 491.185 1446.61 472.686C1454.56 464.932 1471.05 448.478 1474.09 437.801C1476.89 427.961 1460.93 397.172 1465.03 382.281C1471.88 357.405 1482.61 353.714 1478.85 339.76L1478.87 339.768Z" fill="#F5B2BF"/>
<path d="M1351.71 320.813C1347.69 324.327 1349.91 331.389 1352.92 334.278C1355.57 336.82 1359.72 337.479 1363.32 335.502C1367.04 333.467 1357.65 315.602 1351.71 320.813Z" fill="white" stroke="#19233F" stroke-width="2.74" stroke-linecap="round" stroke-linejoin="round"/>
<path d="M1505.5 386.259C1459.83 353.342 1390.21 354.795 1353.72 366.493C1342.64 370.041 1318.42 376.292 1311.36 389.013C1291.91 424.134 1281.53 557.787 1316.09 618.731C1332.7 648.016 1388.74 621.873 1404.24 632.921C1438.95 657.653 1405.72 681.87 1458.87 636.824C1479.71 619.161 1491.25 627.017 1492.72 601.373C1495.08 560.262 1532.51 405.72 1505.5 386.25V386.259Z" fill="white"/>
<path d="M1357.34 357.473C1347.27 360.995 1341.6 366.68 1337.79 376.486C1331.16 393.549 1306.21 504.311 1298.88 573.558C1294.47 615.175 1322.61 636.528 1351.05 645.338" stroke="#19233F" stroke-width="2.74" stroke-linecap="round" stroke-linejoin="round"/>
<path d="M1458.87 636.824C1488.66 618.469 1506.36 587.005 1501.58 550.633C1495.76 506.338 1479.79 498.77 1476.31 452.118C1473.35 412.444 1443 360.327 1437.79 359.043C1434.07 384.891 1422.77 404.698 1386.42 395.111" stroke="#19233F" stroke-width="2.74" stroke-linecap="round" stroke-linejoin="round"/>
<path d="M1415.94 334.354C1413.24 322.849 1369.01 335.165 1374.36 344.557C1385.91 364.847 1380.26 378.623 1382.21 382.652C1386.61 391.724 1413.52 389.131 1418.15 381.166C1420.18 377.66 1419.36 348.933 1415.93 334.354H1415.94Z" fill="white"/>
<path d="M1418.15 381.157C1420.6 373.184 1419.36 348.925 1415.93 334.345C1413.23 322.841 1369 335.156 1374.35 344.549C1385.9 364.838 1380.26 378.615 1382.2 382.644" stroke="#19233F" stroke-width="2.74" stroke-linecap="round" stroke-linejoin="round"/>
<path d="M1397.56 273.993C1391.47 272.329 1383.32 265.242 1378.2 266.856C1377.32 266.881 1376.45 266.94 1375.55 267.059C1365.49 265.352 1355.16 278.698 1354.79 291.242C1354.67 295.347 1354.7 299.866 1354.97 304.554C1354.92 307.662 1355.22 310.931 1355.87 314.217C1357.68 327.824 1363.42 342.944 1372.26 351.518C1380.04 359.061 1390.84 364.222 1401.3 358.452C1412.11 352.497 1416.39 337.521 1418.19 326.625C1421.16 308.642 1419.47 279.957 1397.56 273.976V273.993Z" fill="white" stroke="#19233F" stroke-width="2.74" stroke-linecap="round" stroke-linejoin="round"/>
<path d="M1418.95 326.439C1424.49 326.422 1426.98 319.082 1426.78 314.58C1426.59 310.619 1424.68 304.773 1419.82 306.192C1412.96 308.203 1410.74 326.473 1418.95 326.439Z" fill="white"/>
<path d="M1415.61 325.012C1416.44 325.916 1417.54 326.448 1418.95 326.439C1424.49 326.422 1426.98 319.082 1426.78 314.58C1426.59 310.619 1424.68 304.773 1419.82 306.192C1417.67 306.817 1415.99 309.039 1414.92 311.784" stroke="#19233F" stroke-width="2.74" stroke-linecap="round" stroke-linejoin="round"/>
<path d="M1399.62 246.06C1394.66 236.667 1385.27 246.719 1376.12 245.241C1355.01 241.828 1344.23 260.301 1344.1 270.615C1343.88 287.973 1343.07 288.429 1343.06 296.656C1343.04 308.676 1354.73 325.755 1354.73 325.755C1359.97 312.654 1381.57 295.642 1402.06 301.496L1398.19 284.298C1405.53 288.691 1407.18 302.822 1407.18 302.822C1407.18 302.822 1417.37 309.03 1419.81 311.184C1419.81 311.184 1431.26 291.765 1419.02 268.866C1409.85 251.719 1405.6 257.387 1399.62 246.06H1399.62Z" fill="#F5B2BF"/>
<path d="M1419.82 313.777C1417.9 316.185 1418.91 318.837 1419.19 319.91" stroke="#19233F" stroke-width="2.74" stroke-linecap="round" stroke-linejoin="round"/>
<path d="M1356.05 282.457C1354.32 292.635 1358.16 302.391 1362.96 308.161" stroke="white" stroke-width="2.74" stroke-linecap="round" stroke-linejoin="round"/>
<path d="M1364.34 270.936C1361.33 283.107 1367.05 296.301 1371.85 302.062" stroke="white" stroke-width="2.74" stroke-linecap="round" stroke-linejoin="round"/>
<path d="M1390.7 307.079C1401.7 303.05 1403.33 311.362 1403.33 311.362C1403.33 311.362 1397.77 308.313 1391.02 309.47C1389.83 309.673 1389.67 307.46 1390.7 307.079Z" fill="#F5B2BF"/>
<path d="M1375.74 311.658C1364.07 310.636 1364.66 319.082 1364.66 319.082C1364.66 319.082 1369.25 314.69 1376.06 314.048C1377.26 313.938 1376.83 311.75 1375.74 311.658Z" fill="#F5B2BF"/>
<path d="M1501.54 521.694C1492.32 473.599 1503.54 407.232 1487.02 376.723C1479.66 363.115 1461.78 355.471 1448.38 351.619C1438.16 348.679 1417.14 379.958 1419.03 400.146C1428.51 501.726 1408.65 517.733 1424.58 534.593C1438.78 549.628 1504.83 538.892 1501.53 521.694H1501.54Z" fill="white"/>
<path d="M1366.63 537.693C1379.96 520.883 1368.03 508.391 1373.18 407.03C1374.2 386.892 1366.11 354.617 1357.31 357.54C1345.77 361.375 1326.48 358.959 1318.77 380.617C1295.1 447.143 1295.37 513.577 1296.94 531.079C1298.41 547.33 1354.74 552.677 1366.63 537.684V537.693Z" fill="white"/>
<path d="M1515.8 517.361C1492.31 513.358 1504.51 484.326 1489.47 445.235C1482.19 426.314 1451.3 378.759 1461.27 368.04C1479.46 348.477 1512.73 392.983 1527.63 421.043C1539.6 443.613 1541.5 521.754 1515.81 517.37L1515.8 517.361Z" fill="white"/>
<path d="M1266.51 523.603C1289.58 517.615 1301.56 505.198 1313.21 464.975C1318.86 445.505 1342.06 371.908 1333.24 365.97C1318.85 356.282 1285.6 414.885 1273.14 444.111C1262.23 469.713 1250.23 527.827 1266.5 523.603H1266.51Z" fill="white"/>
<path d="M1289.68 520.622C1281.34 522.438 1280.18 487.35 1288.54 485.525C1293.25 484.495 1328.37 473.016 1335.15 472.289C1348.77 470.836 1364.12 466.824 1370.09 464.831C1377.07 462.508 1390.26 459.636 1396.83 460.329C1403.53 461.038 1405.07 461.486 1404.29 468.868C1403.74 474.207 1392.61 483.405 1387.96 485.483C1381.84 488.228 1365.66 489.081 1357.2 490.45C1342.91 492.756 1295.99 519.236 1289.68 520.613V520.622Z" fill="white"/>
<path d="M1338.09 515.511C1350.67 511.727 1341.08 457.6 1317.84 469.586C1287.14 485.424 1278.07 476.268 1271.23 478.295C1260.33 481.522 1253.71 513.738 1262.17 522.362C1272.42 532.802 1276.87 526.931 1286.89 526.729C1329.74 525.833 1312.44 523.232 1338.09 515.52V515.511Z" fill="white"/>
<path d="M1443.04 487.3C1449.07 489.589 1486.86 504.844 1493.32 504.717C1508.5 504.421 1506.66 474.849 1498.49 472.307C1493.89 470.871 1457.41 474.942 1436.35 460.008C1430.94 456.173 1413.11 452.17 1412.12 456.376C1411.45 459.206 1418.53 458.826 1418.92 460.093C1419.52 462.069 1408.64 461.292 1398.69 460.38C1395.11 460.05 1388.65 458.893 1389.1 462.542C1389.6 466.639 1390.06 467.163 1391.98 469.435C1396.3 474.562 1402.42 477.434 1412.55 480.677C1428.28 485.72 1436.15 484.673 1443.05 487.291L1443.04 487.3Z" fill="white"/>
<path d="M1457.93 506.338C1445.52 502.03 1455.14 455.497 1480.97 459.535C1517.08 465.177 1509.17 469.916 1520.06 478.447C1535.68 490.678 1528.42 510.325 1523.47 514.954C1517.73 520.309 1515.2 516.018 1505.2 515.376C1462.43 512.665 1483.25 515.131 1457.94 506.338H1457.93Z" fill="white"/>
<path d="M1501.57 521.627C1492.34 473.531 1503.56 407.165 1487.05 376.655C1479.68 363.048 1461.81 355.403 1448.4 351.552C1438.18 348.612 1417.17 379.89 1419.05 400.078C1428.54 501.659 1408.68 517.666 1424.6 534.525C1438.81 549.56 1504.85 538.825 1501.56 521.627H1501.57Z" stroke="#19233F" stroke-width="2.74" stroke-linecap="round" stroke-linejoin="round"/>
<path d="M1366.66 537.625C1379.99 520.816 1368.07 508.323 1373.21 406.962C1374.23 386.825 1366.14 354.55 1357.34 357.473C1345.8 361.307 1326.52 358.892 1318.81 380.549C1295.13 447.076 1295.41 513.51 1296.98 531.011C1298.44 547.263 1354.77 552.61 1366.66 537.617V537.625Z" stroke="#19233F" stroke-width="2.74" stroke-linecap="round" stroke-linejoin="round"/>
<path d="M1515.8 517.361C1492.31 513.358 1504.51 484.326 1489.47 445.235C1482.19 426.314 1451.3 378.759 1461.27 368.04C1479.46 348.477 1512.73 392.983 1527.63 421.043C1539.6 443.613 1541.5 521.754 1515.81 517.37L1515.8 517.361Z" fill="white"/>
<path d="M1461.26 368.04C1479.45 348.477 1512.73 392.983 1527.62 421.043C1539.59 443.613 1541.5 521.754 1515.8 517.37C1492.31 513.366 1504.51 484.335 1489.47 445.243C1487.54 440.209 1483.92 433.139 1479.86 425.283" stroke="#19233F" stroke-width="2.74" stroke-linecap="round" stroke-linejoin="round"/>
<path d="M1266.54 523.536C1289.61 517.547 1301.59 505.131 1313.25 464.907C1318.89 445.437 1342.09 371.841 1333.27 365.903C1318.88 356.214 1285.63 414.818 1273.18 444.044C1262.26 469.646 1250.27 527.759 1266.54 523.536H1266.54Z" fill="white"/>
<path d="M1334.29 379.417C1335.06 372.33 1334.73 367.347 1332.69 365.97C1318.3 356.282 1285.05 414.885 1272.59 444.111C1261.68 469.713 1249.69 527.827 1265.95 523.603C1289.02 517.615 1301 505.198 1312.66 464.975C1313.13 463.353 1327.23 435.056 1324.58 422.614" stroke="#19233F" stroke-width="2.74" stroke-linecap="round" stroke-linejoin="round"/>
<path d="M1392.89 707.71C1382.38 706.535 1362.54 713.715 1377.15 741.97C1382.92 753.136 1384.6 769.143 1387.49 773.67C1391.9 780.554 1402.99 780.208 1404.51 773.113C1407.61 758.534 1407.16 739.697 1403.92 723.877C1403.5 721.79 1404.04 708.96 1392.9 707.718L1392.89 707.71Z" fill="#81C0DD"/>
<path d="M1433.07 704.745C1443.59 703.571 1461.28 701.053 1452.57 740.964C1449.88 753.246 1447.25 768.197 1444.35 772.724C1439.94 779.608 1428.85 779.262 1427.34 772.167C1424.23 757.588 1418.6 738.751 1420.76 722.753C1422 713.563 1421.94 705.986 1433.08 704.745H1433.07Z" fill="#81C0DD"/>
<path d="M1383.52 499.902C1374.96 463.514 1324.6 478.017 1324.6 512.471C1324.6 569.918 1366.53 644.08 1377.16 693.198C1381.05 711.207 1396.19 710.032 1393.9 690.892C1378.26 560.871 1403.08 582.976 1383.52 499.911V499.902Z" fill="white"/>
<path d="M1457.48 508.56C1451.33 449.551 1397.95 472.932 1401.5 508.509C1404.67 540.303 1408.2 649.993 1423.38 716.401C1427.24 733.294 1449.3 735.457 1449.14 716.908C1448.34 620.336 1467.43 604.017 1457.48 508.56Z" fill="white"/>
<path d="M1387.61 519.06C1375.95 541.317 1344 544.51 1327.24 539.67C1342.35 599.008 1368.56 672.588 1375.59 724.628C1376.62 732.247 1403.24 737.763 1402.19 714.923C1397.77 617.929 1401.33 567.966 1387.61 519.06Z" fill="#F5B2BF"/>
<path d="M1401.85 527.059C1406.64 583.297 1411.94 669.665 1422.81 717.204C1426.67 734.097 1449.29 735.457 1449.14 716.9C1448.42 629.889 1475.15 590.68 1458.77 516.154C1456.11 521.188 1425.62 542.229 1401.85 527.059H1401.85Z" fill="#F5B2BF"/>
<path d="M1358.24 575.872C1377.77 572.95 1390.22 565.432 1394.29 550.98C1393.36 544.746 1392.21 531.037 1389.29 525.377C1377.05 555.946 1336.87 553.826 1329.08 546.756C1331.17 554.95 1332.72 564.63 1335.22 573.625C1340.51 576.345 1347.47 577.486 1358.23 575.872H1358.24Z" fill="white"/>
<path d="M1463.57 548.479C1462.96 542.347 1461.43 528.773 1460.3 523.604C1456.65 530.116 1430.19 558.658 1402.44 534.035C1403.06 541.299 1403.82 551.596 1404.46 559.697C1406.91 567.865 1454.69 582.452 1463.57 548.479Z" fill="white"/>
<path d="M1411.15 495.375C1409.87 506.372 1416.9 509.616 1420.27 511.482" stroke="#19233F" stroke-width="2.74" stroke-linecap="round" stroke-linejoin="round"/>
<path d="M1351.35 514.912C1357.7 512.04 1361.16 508.062 1362.68 503.433" stroke="#19233F" stroke-width="2.74" stroke-linecap="round" stroke-linejoin="round"/>
<path d="M1325.71 529.06C1332.55 585.712 1369.8 662.73 1375.59 724.619C1377.31 742.966 1402.79 736.056 1401.85 716.798C1397.3 623.039 1403.1 582.9 1383.55 499.834C1376.43 469.603 1340.46 474.502 1328.5 496.785" stroke="#19233F" stroke-width="2.74" stroke-linecap="round" stroke-linejoin="round"/>
<path d="M1455.64 501.042C1441.18 452.49 1398.15 474.485 1401.53 508.45C1404.71 540.243 1408.23 649.933 1423.42 716.341C1427.28 733.235 1449.47 735.397 1449.17 716.848C1447.71 624.61 1475.33 599.345 1458.4 512.918" stroke="#19233F" stroke-width="2.74" stroke-linecap="round" stroke-linejoin="round"/>
<path d="M1289.71 520.563C1281.38 522.379 1280.21 487.291 1288.57 485.466C1293.29 484.436 1328.4 472.957 1335.18 472.23C1348.8 470.777 1364.16 466.765 1370.13 464.772C1377.1 462.449 1390.3 459.577 1396.86 460.27C1403.56 460.979 1405.11 461.427 1404.33 468.809C1403.77 474.148 1392.65 483.346 1387.99 485.424C1381.88 488.169 1365.69 489.022 1357.24 490.391C1342.95 492.697 1296.02 519.177 1289.71 520.554V520.563Z" fill="white"/>
<path d="M1396.79 479.216C1393.58 482.096 1390.1 484.537 1387.97 485.492C1381.85 488.237 1365.67 489.09 1357.21 490.458" stroke="#19233F" stroke-width="2.74" stroke-linecap="round" stroke-linejoin="round"/>
<path d="M1335.15 472.29C1348.77 470.837 1364.12 466.825 1370.09 464.831C1374.12 463.488 1379.03 462.162 1384.74 461.241" stroke="#19233F" stroke-width="2.74" stroke-linecap="round" stroke-linejoin="round"/>
<path d="M1443.07 487.232C1449.1 489.521 1486.9 504.776 1493.36 504.649C1508.54 504.353 1506.69 474.781 1498.53 472.239C1493.92 470.803 1457.44 474.874 1436.38 459.94C1430.97 456.105 1413.15 452.102 1412.15 456.308C1411.48 459.138 1418.56 458.758 1418.95 460.025C1419.55 462.001 1408.68 461.224 1398.72 460.312C1395.15 459.982 1388.69 458.825 1389.13 462.474C1389.63 466.571 1390.1 467.095 1392.01 469.367C1396.33 474.494 1402.45 477.366 1412.58 480.609C1428.31 485.652 1436.18 484.605 1443.08 487.223L1443.07 487.232Z" fill="white"/>
<path d="M1443.04 487.299C1449.07 489.588 1486.86 504.843 1493.32 504.716C1508.5 504.421 1506.66 474.849 1498.49 472.306C1493.89 470.87 1457.41 474.942 1436.35 460.008C1430.94 456.173 1413.11 452.169 1412.12 456.376C1411.45 459.205 1418.53 458.825 1418.92 460.092C1419.52 462.069 1408.64 461.292 1398.69 460.379C1395.11 460.05 1388.65 458.893 1389.1 462.542C1389.6 466.638 1390.06 467.162 1391.98 469.434C1396.3 474.561 1402.42 477.433 1412.55 480.677C1428.28 485.72 1436.15 484.672 1443.05 487.291L1443.04 487.299Z" stroke="#19233F" stroke-width="2.74" stroke-linecap="round" stroke-linejoin="round"/>
<path d="M1338.12 515.452C1350.7 511.668 1341.11 457.541 1317.88 469.527C1287.17 485.365 1278.11 476.209 1271.27 478.236C1260.36 481.463 1256.97 515.925 1262.5 522.311C1269.59 530.488 1276.9 526.872 1286.92 526.661C1329.77 525.766 1312.46 523.164 1338.11 515.452H1338.12Z" fill="white"/>
<path d="M1259.68 520.208C1264.91 530.986 1276.87 526.931 1286.89 526.729C1329.74 525.833 1312.44 523.232 1338.09 515.52C1350.67 511.736 1341.08 457.609 1317.84 469.595C1287.14 485.432 1278.07 476.276 1271.23 478.303" stroke="#19233F" stroke-width="2.74" stroke-linecap="round" stroke-linejoin="round"/>
<path d="M1457.96 506.271C1445.55 501.963 1455.16 455.43 1481 459.467C1517.1 465.11 1509.2 469.848 1520.08 478.38C1535.7 490.61 1528.45 510.258 1523.5 514.886C1517.76 520.242 1515.23 515.951 1505.23 515.309C1462.45 512.597 1483.27 515.064 1457.97 506.271H1457.96Z" fill="white"/>
<path d="M1525.54 514.244C1520.23 519.363 1515.23 515.942 1505.22 515.309C1462.45 512.597 1483.27 515.064 1457.97 506.271C1445.56 501.963 1455.17 455.43 1481.01 459.467C1517.11 465.11 1509.2 469.848 1520.09 478.38" stroke="#19233F" stroke-width="2.74" stroke-linecap="round" stroke-linejoin="round"/>
</g>
<defs>
<linearGradient id="paint0_linear_34_264" x1="772" y1="-128" x2="1394.8" y2="2168.95" gradientUnits="userSpaceOnUse">
<stop offset="0.415" stop-color="#E8ECF7"/>
<stop offset="1" stop-color="#809B92"/>
</linearGradient>
<clipPath id="clip0_34_264">
<rect width="1920" height="1813" fill="white"/>
</clipPath>
</defs>
</svg>
