<?xml version="1.0" encoding="UTF-8"?>
<svg id="Camada_1" data-name="Camada 1" xmlns="http://www.w3.org/2000/svg" viewBox="0 0 1080 1080">
  <defs>
    <style>
      .cls-1 {
        fill: #f5b3c0;
        stroke-width: 0px;
      }
    </style>
  </defs>
  <path class="cls-1" d="m301.83,227.58c3.79,0,7.05,0,10.31,0,88.8,0,177.61-.25,266.41.13,37.86.16,75.35,4.03,110.21,22.34,40.66,21.35,62.57,57.83,69.19,105.8,10.71,77.72-8.27,146.14-55.5,206.19,27.08,42.01,45.16,88.81,57.21,138.45,12.03,49.58,17.4,100.18,18.51,152.02h-66.44c-1.44-56.89-6.93-112.75-25.44-165.88-7.22-20.72-16.89-40.43-25.73-60.45-2.28-5.16-5.65-9.73-8.81-15.05-32.24,25.27-67.23,41.86-105.22,50.09-45.3,9.81-90.64,13.02-135.19-4.97-18.71-7.55-29.25-15.69-43.18-33.49v229.41h-66.32V227.58Zm352.46,275.06c32.53-37.21,45.07-80.78,39.24-130.31-3.53-29.99-18.23-53.12-44.53-63.63-16.97-6.78-35.37-12.33-53.25-12.78-74.02-1.88-148.09-1.62-222.14-2.08-1.87-.01-3.74.76-5.38,1.12v175.97c12.56-18.28,28.54-27.57,46.43-33.35,46.85-15.13,93.55-11.93,139.98,2.24,37.61,11.47,70.27,32.77,99.64,62.83Zm-32.7,52.87c-3.54-3.15-6.03-5.05-8.19-7.32-45.41-47.49-100.15-63.11-161.2-55.96-20.78,2.43-40.66,8.88-56.44,25.15-18.21,18.77-18.07,45.94,1.31,63.12,8.6,7.63,19.01,13.83,29.51,17.66,41.35,15.1,82.92,10.51,124.09-1.54,25.65-7.51,48.97-20.33,70.92-41.11Z"/>
</svg>