<svg width="136" height="402" viewBox="0 0 136 402" fill="none" xmlns="http://www.w3.org/2000/svg">
<path d="M45.3886 3.91872C55.9964 3.07302 54.811 -3.0593 63.3994 1.94542C70.2955 5.96146 78.655 -3.33303 90.2888 5.94103C99.8828 13.5891 93.5468 18.3405 95.3577 21.7315C98.1128 26.8955 106.039 21.6252 102.752 35.0052C101.992 38.1061 109.191 37.8977 110.213 45.1617C111.271 52.6954 105.573 52.7771 108.144 59.3098C112.678 70.835 101.931 68.4409 97.3934 70.6429C93.8493 72.3588 95.0347 83.8432 84.5169 78.9283C81.9661 77.7354 80.237 79.8476 77.8456 81.1263C59.0132 91.193 53.879 83.1527 47.6778 80.9547C40.7899 78.5157 39.7107 83.5449 33.5055 80.1458C28.8331 77.5883 34.9117 66.7004 26.5195 66.6024C15.6174 66.4757 19.5089 52.009 22.5707 47.6416C28.8209 38.723 21.4833 36.4188 24.4429 28.9383C26.589 23.5127 31.2981 27.0957 32.3691 22.855C33.1866 19.6274 32.2587 17.0045 31.9276 14.8392C30.6481 6.40678 35.86 4.67453 45.3886 3.91872Z" fill="#F6B6C2"/>
<path d="M104.232 105.059C106.243 101.676 107.609 85.5958 99.0612 81.7881C84.6068 75.3453 60.2559 75.2472 42.4863 79.0549C39.2815 79.7413 35.2509 81.7309 28.8372 85.4609C20.6698 90.2124 20.0321 106.219 24.7617 115.318C27.8398 121.238 21.1072 137.24 30.6726 140.055C35.9336 141.604 45.8546 140.582 51.4263 139.655C63.9921 137.559 89.365 140.648 99.1061 135.888C106.26 132.391 101.354 109.904 104.236 105.055L104.232 105.059Z" fill="white"/>
<path d="M107.711 233.233C135.083 228.175 143.753 215.584 114.656 153.476C106.673 136.436 102.871 134.561 105.303 117.929C105.961 113.434 36.3464 122.079 34.4006 127.701C25.3953 153.693 17.2401 165.116 10.7815 177.213C4.01209 189.894 -8.54965 219.955 27.0835 232.347C38.562 236.338 83.7238 237.666 107.715 233.233H107.711Z" fill="white"/>
<path d="M107.711 233.233C135.083 228.175 143.753 215.584 114.656 153.476C106.673 136.436 102.871 134.561 105.303 117.929C105.961 113.434 36.3464 122.079 34.4006 127.701C25.3953 153.693 17.2401 165.116 10.7815 177.213C4.01209 189.894 -8.54965 219.955 27.0835 232.347C38.562 236.338 83.7238 237.666 107.715 233.233H107.711Z" stroke="#19233F" stroke-width="4.27" stroke-linecap="round" stroke-linejoin="round"/>
<path d="M111.386 111.122C121.295 92.7292 106.252 82.7075 98.5216 79.2675C96.6248 78.4218 94.3561 79.2348 93.51 81.1305C84.0754 102.191 48.34 89.5344 42.6171 79.2185C41.8363 77.8131 40.0459 77.3473 38.6152 78.0786C25.2604 84.881 13.741 94.7107 20.0485 120.67C22.0719 129.004 18.8467 142.638 26.2987 150.89C30.2107 155.221 60.5502 158.052 66.6614 158.685C85.2853 160.626 105.446 156.659 111.557 146.139C114.452 141.155 108.034 117.332 111.382 111.118L111.386 111.122Z" fill="#81C3E0"/>
<path d="M31.2245 167.869C48.8183 165.267 83.7238 161.255 83.7238 161.255L78.8144 160.005C78.8144 160.005 30.3374 160.63 21.8594 169.136L31.2245 167.869Z" fill="#EA8081"/>
<path d="M52.6403 175.542C51.4508 171.677 37.1395 169.279 31.2245 167.869C26.6666 166.783 23.241 167.326 20.261 169.418C16.7864 171.857 7.14335 179.288 6.96758 182.777C6.76727 186.822 25.0396 193.4 34.3148 192.677C42.0857 192.072 54.1896 180.579 52.6403 175.542Z" fill="#EA8081"/>
<path d="M62.7616 173.573C62.7616 173.573 101.698 184.51 115.653 180.024C119.545 178.774 110.703 166.533 110.703 166.533L115.527 165.671C115.527 165.671 124.258 180.297 120.146 183.733C110.323 191.937 60.0146 176.731 60.0146 176.731L62.7616 173.573Z" fill="#EA8081"/>
<path d="M76.4475 176.939C89.0583 179.713 107.077 182.786 115.653 180.028C117.701 179.37 116.222 175.669 114.362 172.306" stroke="#19233F" stroke-width="4.27" stroke-linecap="round" stroke-linejoin="round"/>
<path d="M25.3054 169.287C20.3019 180.968 42.4045 180.363 49.3047 176.228" stroke="#19233F" stroke-width="4.27" stroke-linecap="round" stroke-linejoin="round"/>
<path d="M32.2669 176.894C31.1713 176.045 29.5567 175.706 28.6533 176.139L26.8833 176.988C25.9799 177.421 25.3626 178.067 26.4581 178.917C27.5537 179.766 29.5975 180.351 30.5009 179.922L32.6184 179.219C33.5218 178.786 33.3665 177.748 32.271 176.898L32.2669 176.894Z" fill="#19233F"/>
<path d="M108.843 255.311C108.757 251.928 108.263 248.999 107.458 246.486C107.458 246.486 97.1768 200.725 75.0537 200.725C70.7288 200.725 40.3117 203.246 22.9304 221.381C18.4706 226.034 61.9319 263.866 66.2118 267.6C64.7729 293.216 67.8102 309.885 68.7054 369.051C68.8484 378.529 82.5221 382.313 82.5221 373.271C82.5221 344.228 109.894 296.526 108.839 255.311H108.843Z" fill="white"/>
<path d="M101.252 383.183C101.036 380.016 101.538 366.032 101.538 366.032C101.538 366.032 104.11 369.901 109.456 368.708C114.268 367.633 118.462 365.701 118.462 365.701C118.462 365.701 118.016 379.4 122.566 389.058C125.194 394.638 130.018 395.848 129.433 398.418C128.571 402.213 119.982 401.563 116.876 400.011C109.301 396.224 108.52 396.493 106.35 389.568C105.818 387.869 108.974 392.98 108.079 394.259C107.478 395.112 104.825 395.394 104.265 394.622C103.423 393.462 101.628 388.674 101.252 383.187V383.183Z" fill="#81C3E0"/>
<path d="M134.617 247.479C134.343 244.82 133.121 228.38 125.901 217.291C121.675 210.804 113.045 207.899 107.572 206.02C100.177 203.483 76.7296 198.531 64.2987 202.089C57.2186 204.116 54.7414 215.42 53.5028 222.492C52.5831 227.754 79.5175 252.41 91.184 262.812C91.6132 292.583 96.4286 306.453 103.472 370.089C104.514 379.51 118.486 381.982 117.628 372.981C114.869 344.068 138.864 288.481 134.617 247.475V247.479Z" fill="white"/>
<path d="M98.9141 309.93C104.518 291.852 109.293 272.981 108.843 255.307C108.757 251.924 108.263 248.995 107.458 246.482C107.458 246.482 102.994 229.711 93.0317 217.296" fill="white"/>
<path d="M125.272 216.397C92.067 188.313 33.3869 203.617 21.8594 222.962" stroke="#19233F" stroke-width="4.27" stroke-linecap="round" stroke-linejoin="round"/>
<path d="M65.2553 381.867C65.3412 378.697 67.1684 364.819 67.1684 364.819C67.1684 364.819 69.3595 368.916 74.7962 368.234C79.6852 367.621 84.0469 366.093 84.0469 366.093C84.0469 366.093 82.3055 379.686 85.915 389.732C87.9997 395.537 92.6884 397.196 91.8627 399.701C90.6445 403.398 82.1542 401.935 79.211 400.097C72.0288 395.607 71.2276 395.803 69.7233 388.702C69.3554 386.958 72.0124 392.347 70.9987 393.536C70.3201 394.328 67.6508 394.357 67.1643 393.536C66.4367 392.302 65.1041 387.366 65.2512 381.867H65.2553Z" fill="#81C3E0"/>
<path d="M104.543 256.39C105.058 259.973 102.916 264.405 97.9617 265.917" stroke="#19233F" stroke-width="4.27" stroke-linecap="round" stroke-linejoin="round"/>
<path d="M80.1103 173.23C82.5915 172.752 90.7262 172.854 93.1871 172.204C96.445 171.346 95.9504 157.884 92.6884 158.746C90.8489 159.233 81.5778 163.253 78.9779 162.901C75.5033 162.436 70.0952 160.838 65.2594 161.259C62.9947 161.455 58.0117 164.033 59.0296 166.072C59.0296 166.072 56.3112 167.007 54.8396 168.564C52.6445 170.884 50.948 175.501 51.9904 176.502C52.5913 177.078 53.3067 176.808 54.4881 176.592C55.8248 176.347 57.9218 174.925 58.1507 174.905C58.4491 174.88 57.3781 175.91 57.6561 176.42C57.9259 176.911 59.3239 176.857 60.0147 176.739C61.9442 176.404 65.4719 175.615 67.7815 175.37C71.0722 175.027 77.2652 173.777 80.1103 173.23Z" fill="white"/>
<path d="M80.1103 173.23C82.5915 172.752 90.7262 172.854 93.1871 172.204C96.445 171.346 95.9504 157.884 92.6884 158.746C90.8489 159.233 81.5778 163.253 78.9779 162.901C75.5033 162.436 70.0952 160.838 65.2594 161.259C62.9947 161.455 58.0117 164.033 59.0296 166.072C59.0296 166.072 56.3112 167.007 54.8396 168.564C52.6445 170.884 50.948 175.501 51.9904 176.502C52.5913 177.078 53.3067 176.808 54.4881 176.592C55.8248 176.347 57.9218 174.925 58.1507 174.905C58.4491 174.88 57.3781 175.91 57.6561 176.42C57.9259 176.911 59.3239 176.857 60.0147 176.739C61.9442 176.404 65.4719 175.615 67.7815 175.37C71.0722 175.027 77.2652 173.777 80.1103 173.23Z" stroke="#19233F" stroke-width="4.27" stroke-linecap="round" stroke-linejoin="round"/>
<path d="M93.003 172.388C92.7578 170.852 88.3062 159.216 88.5433 157.68C89.6224 150.698 78.9983 153.027 79.2149 160.127C79.3907 165.843 79.2803 169.675 81.7943 173.005C85.829 178.345 93.5058 175.513 93.003 172.388Z" fill="white"/>
<path d="M93.003 172.388C92.7578 170.852 88.3062 159.216 88.5433 157.68C89.6224 150.698 78.9983 153.027 79.2149 160.127C79.3907 165.843 79.2803 169.675 81.7943 173.005C85.829 178.345 93.5058 175.513 93.003 172.388Z" stroke="#71C1A6" stroke-width="4.27" stroke-linecap="round" stroke-linejoin="round"/>
<path d="M105.74 84.3865C97.6998 80.3704 111.987 133.796 105.74 139.479C102.695 142.249 88.6985 149.162 85.1503 151.658C81.8065 154.011 85.6817 171.203 90.117 175.305C93.4076 178.349 98.5746 177.862 107.911 173.038C125.1 164.152 127.402 152.34 129.09 144.124C130.835 135.623 128.873 95.9361 105.74 84.3865Z" fill="#81C3E0"/>
<path d="M65.6762 164.205C63.1417 164.205 59.8511 165.676 59.8511 165.676L65.6762 164.205Z" fill="white"/>
<path d="M65.6762 164.205C63.1417 164.205 59.8511 165.676 59.8511 165.676" stroke="#19233F" stroke-width="4.27" stroke-linecap="round" stroke-linejoin="round"/>
<path d="M56.0823 55.8657C54.9704 49.3738 78.1195 49.4964 77.1957 55.4489C75.7527 64.7557 77.7598 79.0998 76.7337 81.3673C74.416 86.4864 59.471 85.7388 56.769 81.3673C55.5795 79.443 57.2636 62.7742 56.0823 55.8657Z" fill="white"/>
<path d="M54.116 19.8684C57.1491 18.0871 60.5052 13.0905 63.4934 13.2131C63.9675 13.0987 64.454 13.0047 64.9486 12.9394C70.1115 10.5575 77.6207 16.2323 79.6483 22.9284C80.3105 25.1182 80.9482 27.5573 81.4878 30.1189C81.9701 31.7817 82.2849 33.5874 82.4157 35.4504C83.4254 43.0331 83.1392 51.0366 79.6319 56.936C76.5456 62.1287 70.6306 65.2377 64.1556 63.6566C57.472 62.0265 53.2412 56.8012 50.6863 51.2C46.4677 41.9586 43.1975 26.2826 54.116 19.8765V19.8684Z" fill="white"/>
<path d="M85.9434 38.3553C88.6168 39.6626 88.4533 43.7808 87.2515 45.7745C86.1927 47.5272 84.0589 48.4832 81.8311 47.948C79.5337 47.3964 81.9823 36.4187 85.9434 38.3553Z" fill="white"/>
<path d="M50.7272 51.0653C47.7431 51.862 44.849 48.4056 44.3053 45.9544C43.8271 43.7972 44.7468 41.542 46.8275 40.4308C48.9777 39.2827 55.1502 49.8846 50.7272 51.0653Z" fill="white"/>
<path d="M51.0665 10.7089C52.3705 4.93606 58.8864 8.97661 63.5955 6.84807C74.4649 1.93731 82.9552 10.3044 84.529 15.8361C87.1738 25.1429 87.6807 25.2655 88.8866 29.6941C90.6484 36.1574 84.1775 43.356 82.06 41.8811C78.054 39.0948 81.9129 32.174 75.1394 32.3906C65.4146 32.7011 67.4299 18.0301 55.1542 30.4663C52.0434 33.6203 52.6771 43.4949 48.6138 42.0895C44.6773 40.729 41.0064 31.6102 42.008 26.8302C44.2358 16.2284 49.4968 17.6746 51.0665 10.7089Z" fill="#F6B6C2"/>
<path d="M71.5381 6.71313C80.85 13.1396 83.27 10.8517 84.668 16.4284C86.0988 22.1359 84.2715 24.4442 85.4774 28.8688" stroke="white" stroke-width="4.27" stroke-linecap="round" stroke-linejoin="round"/>
<path d="M44.7428 38.2819C41.0679 36.5251 40.5937 25.2451 43.6677 19.8645" stroke="white" stroke-width="4.27" stroke-linecap="round" stroke-linejoin="round"/>
<path d="M47.6737 44.1484C49.0554 45.1616 49.362 47.0165 49.362 47.6334" stroke="#19233F" stroke-width="4.27" stroke-linecap="round" stroke-linejoin="round"/>
<path d="M62.0218 37.4444C54.2999 36.9296 54.8395 42.5226 54.8395 42.5226C54.8395 42.5226 57.7868 39.5443 62.2752 39.0254C63.0682 38.9315 62.7453 37.4934 62.0218 37.4444Z" fill="#19233F"/>
<path d="M70.925 36.6721C77.9805 35.6957 78.5773 40.7167 78.5773 40.7167C78.5773 40.7167 75.1804 38.5882 71.019 38.4125C70.2832 38.3798 70.2628 36.7661 70.9209 36.6762L70.925 36.6721Z" fill="#19233F"/>
<path d="M65.4841 64.0612C65.4841 64.0612 56.9406 63.9019 52.2847 55.7595" stroke="#19233F" stroke-width="4.27" stroke-linecap="round" stroke-linejoin="round"/>
<path d="M87.1494 81.0365C85.7392 83.6308 83.0944 96.782 81.5287 99.2905C79.4603 102.604 67.1398 96.8678 69.2123 93.5463C70.3814 91.6751 77.7271 82.8504 78.4139 79.8027C79.3336 75.7376 78.2912 70.9984 82.0152 65.4994C83.7157 62.9868 88.6864 57.6838 89.7411 58.9176C90.669 60.0003 86.9941 63.4975 87.3334 64.764C88.8704 65.291 93.7512 58.5295 95.0021 55.7718C95.6806 54.2765 97.5651 50.6118 97.8553 52.2624C98.2805 54.6646 98.5911 57.4142 98.587 58.7746C98.5789 61.8347 96.3469 66.9538 94.0987 70.1609C90.297 75.5824 88.76 78.0663 87.1454 81.0365H87.1494Z" fill="white"/>
<path d="M82.2277 97.4396C80.5967 96.8472 70.786 93.2111 69.0446 93.252C61.1225 93.4317 66.1423 79.9496 73.8927 81.4858C80.1348 82.7237 84.3697 83.2548 87.4437 87.1319C92.3777 93.35 85.5429 98.6489 82.2236 97.4355L82.2277 97.4396Z" fill="white"/>
<path d="M82.2277 97.4396C80.5967 96.8472 70.786 93.2111 69.0446 93.252C61.1225 93.4317 66.1423 79.9496 73.8927 81.4858C80.1348 82.7237 84.3697 83.2548 87.4437 87.1319C92.3777 93.35 85.5429 98.6489 82.2236 97.4355L82.2277 97.4396Z" stroke="#71C1A6" stroke-width="4.27" stroke-linecap="round" stroke-linejoin="round"/>
<path d="M28.6778 84.3784C37.6668 84.3865 38.141 122.627 41.2804 120.641C48.4831 116.086 47.5184 112.842 50.7641 104.953C52.5872 100.52 58.9887 89.9387 64.1884 87.418C68.2639 85.4406 81.2221 91.0336 83.4582 93.9098C87.8075 99.5069 83.916 113.7 77.3428 123.624C65.243 141.89 45.916 151.356 39.2079 151.969C32.0829 152.622 21.5937 139.966 18.2049 128.461C9.69008 99.5682 20.445 84.3661 28.6819 84.3743L28.6778 84.3784Z" fill="#81C3E0"/>
<path d="M103.341 92.9456C104.293 107.506 110.164 135.455 105.741 139.479C102.695 142.249 88.6986 149.162 85.1504 151.658" stroke="#19233F" stroke-width="4.27" stroke-linecap="round" stroke-linejoin="round"/>
<path d="M83.454 93.9099C87.8034 99.507 83.9119 113.7 77.3387 123.624C65.2389 141.89 45.9119 151.356 39.2038 151.969C32.0788 152.622 21.5896 139.966 18.2008 128.461" stroke="#19233F" stroke-width="4.27" stroke-linecap="round" stroke-linejoin="round"/>
<path d="M28.6777 84.3784C37.6668 84.3866 38.1409 122.627 41.2804 120.641C48.483 116.086 47.5183 112.842 50.764 104.953" stroke="#19233F" stroke-width="4.27" stroke-linecap="round" stroke-linejoin="round"/>
</svg>
